<svg xmlns="http://www.w3.org/2000/svg" xmlns:xlink="http://www.w3.org/1999/xlink" xmlns:lucid="lucid" width="2842" height="1658"><g transform="translate(6421 9253)" lucid:page-tab-id="NHMIVnqwenUET"><path d="M-6240-8987a5 5 0 0 1 5-5h390a5 5 0 0 1 5 5v254a5 5 0 0 1-5 5h-390a5 5 0 0 1-5-5z" fill="#fff"/><path d="M-6240-8952v-35a5 5 0 0 1 5-5h390a5 5 0 0 1 5 5v35" fill="#ccc"/><path d="M-6240-8987a5 5 0 0 1 5-5h390a5 5 0 0 1 5 5v254a5 5 0 0 1-5 5h-390a5 5 0 0 1-5-5zM-6240-8952h400M-6180-8952v224" stroke="#000" stroke-width="2" fill="none"/><use xlink:href="#a" transform="matrix(1,0,0,1,-6230,-8992) translate(88.64999999999998 23.6)"/><use xlink:href="#b" transform="matrix(1,0,0,1,-6230,-8992) translate(160.64999999999998 23.6)"/><use xlink:href="#c" transform="matrix(1,0,0,1,-6230,-8992) translate(220.5 23.6)"/><use xlink:href="#d" transform="matrix(1,0,0,1,-6235,-8949.5) translate(13 17.1)"/><use xlink:href="#a" transform="matrix(1,0,0,1,-6175,-8949.5) translate(0 17.1)"/><use xlink:href="#b" transform="matrix(1,0,0,1,-6175,-8949.5) translate(72 17.1)"/><use xlink:href="#e" transform="matrix(1,0,0,1,-6175,-8949.5) translate(131.85000000000002 17.1)"/><use xlink:href="#f" transform="matrix(1,0,0,1,-6175,-8949.5) translate(207.70000000000005 17.1)"/><use xlink:href="#g" transform="matrix(1,0,0,1,-6175,-8917.5) translate(0 17.1)"/><use xlink:href="#h" transform="matrix(1,0,0,1,-6175,-8885.5) translate(0 17.1)"/><use xlink:href="#i" transform="matrix(1,0,0,1,-6175,-8885.5) translate(48.95 17.1)"/><use xlink:href="#j" transform="matrix(1,0,0,1,-6175,-8853.5) translate(0 19.998779296875)"/><use xlink:href="#k" transform="matrix(1,0,0,1,-6175,-8821.5) translate(0 19.998779296875)"/><use xlink:href="#l" transform="matrix(1,0,0,1,-6175,-8789.5) translate(0 19.998779296875)"/><use xlink:href="#m" transform="matrix(1,0,0,1,-6175,-8789.5) translate(113.00732421875 19.998779296875)"/><use xlink:href="#n" transform="matrix(1,0,0,1,-6175,-8789.5) translate(158.41064453125 19.998779296875)"/><use xlink:href="#l" transform="matrix(1,0,0,1,-6175,-8757.5) translate(0 19.998779296875)"/><use xlink:href="#o" transform="matrix(1,0,0,1,-6175,-8757.5) translate(113.00732421875 19.998779296875)"/><use xlink:href="#n" transform="matrix(1,0,0,1,-6175,-8757.5) translate(152.0927734375 19.998779296875)"/><path d="M-5680-8987a5 5 0 0 1 5-5h390a5 5 0 0 1 5 5v350a5 5 0 0 1-5 5h-390a5 5 0 0 1-5-5z" fill="#fff"/><path d="M-5680-8952v-35a5 5 0 0 1 5-5h390a5 5 0 0 1 5 5v35" fill="#ccc"/><path d="M-5680-8987a5 5 0 0 1 5-5h390a5 5 0 0 1 5 5v350a5 5 0 0 1-5 5h-390a5 5 0 0 1-5-5zM-5680-8952h400M-5620-8952v320" stroke="#000" stroke-width="2" fill="none"/><use xlink:href="#p" transform="matrix(1,0,0,1,-5670,-8992) translate(95.67499999999998 23.6)"/><use xlink:href="#q" transform="matrix(1,0,0,1,-5670,-8992) translate(173.575 23.6)"/><use xlink:href="#r" transform="matrix(1,0,0,1,-5675,-8949.5) translate(-0.9750000000000014 17.1)"/><use xlink:href="#s" transform="matrix(1,0,0,1,-5615,-8949.5) translate(0 17.1)"/><use xlink:href="#t" transform="matrix(1,0,0,1,-5615,-8949.5) translate(115.75000000000001 17.1)"/><use xlink:href="#d" transform="matrix(1,0,0,1,-5675,-8917.5) translate(13 17.1)"/><use xlink:href="#p" transform="matrix(1,0,0,1,-5615,-8917.5) translate(0 17.1)"/><use xlink:href="#u" transform="matrix(1,0,0,1,-5615,-8917.5) translate(77.9 17.1)"/><use xlink:href="#f" transform="matrix(1,0,0,1,-5615,-8917.5) translate(193.65000000000003 17.1)"/><use xlink:href="#g" transform="matrix(1,0,0,1,-5615,-8885.5) translate(0 17.1)"/><use xlink:href="#h" transform="matrix(1,0,0,1,-5615,-8853.5) translate(0 17.1)"/><use xlink:href="#i" transform="matrix(1,0,0,1,-5615,-8853.5) translate(48.95 17.1)"/><use xlink:href="#v" transform="matrix(1,0,0,1,-5615,-8821.5) translate(0 17.1)"/><use xlink:href="#w" transform="matrix(1,0,0,1,-5615,-8789.5) translate(0 17.1)"/><use xlink:href="#x" transform="matrix(1,0,0,1,-5615,-8789.5) translate(106.85000000000001 17.1)"/><use xlink:href="#y" transform="matrix(1,0,0,1,-5615,-8757.5) translate(0 17.1)"/><use xlink:href="#w" transform="matrix(1,0,0,1,-5615,-8725.5) translate(0 17.1)"/><use xlink:href="#z" transform="matrix(1,0,0,1,-5615,-8725.5) translate(106.85000000000001 17.1)"/><use xlink:href="#A" transform="matrix(1,0,0,1,-5615,-8725.5) translate(149.8 17.1)"/><use xlink:href="#w" transform="matrix(1,0,0,1,-5615,-8693.5) translate(0 17.1)"/><use xlink:href="#B" transform="matrix(1,0,0,1,-5615,-8693.5) translate(106.85000000000001 17.1)"/><use xlink:href="#A" transform="matrix(1,0,0,1,-5615,-8693.5) translate(143.85000000000002 17.1)"/><use xlink:href="#w" transform="matrix(1,0,0,1,-5615,-8661.5) translate(0 17.1)"/><use xlink:href="#C" transform="matrix(1,0,0,1,-5615,-8661.5) translate(106.85000000000001 17.1)"/><path d="M-5819-8936.02h59v.02h40" stroke="#000" stroke-width="2" fill="none"/><path d="M-5819-8926.02v-20M-5839-8936.02h20" stroke="#000" stroke-width="2" fill="#fff"/><path d="M-5681.45-8926l-20-10 20-10" stroke="#000" stroke-width="2" fill="#fff" fill-opacity="0"/><path d="M-5681.45-8936h-20M-5701.45-8936c0 5.52-4.47 10-10 10-5.52 0-10-4.48-10-10s4.48-10 10-10c5.53 0 10 4.48 10 10" stroke="#000" stroke-width="2" fill="#fff"/><path d="M-5120-8987a5 5 0 0 1 5-5h550a5 5 0 0 1 5 5v158a5 5 0 0 1-5 5h-550a5 5 0 0 1-5-5z" fill="#fff"/><path d="M-5120-8952v-35a5 5 0 0 1 5-5h550a5 5 0 0 1 5 5v35" fill="#ccc"/><path d="M-5120-8987a5 5 0 0 1 5-5h550a5 5 0 0 1 5 5v158a5 5 0 0 1-5 5h-550a5 5 0 0 1-5-5zM-5120-8952h560M-5060-8952v128" stroke="#000" stroke-width="2" fill="none"/><use xlink:href="#D" transform="matrix(1,0,0,1,-5110,-8992) translate(240.025 23.6)"/><use xlink:href="#r" transform="matrix(1,0,0,1,-5115,-8949.5) translate(-0.9750000000000014 17.1)"/><use xlink:href="#s" transform="matrix(1,0,0,1,-5055,-8949.5) translate(0 17.1)"/><use xlink:href="#t" transform="matrix(1,0,0,1,-5055,-8949.5) translate(115.75000000000001 17.1)"/><use xlink:href="#d" transform="matrix(1,0,0,1,-5115,-8917.5) translate(13 17.1)"/><use xlink:href="#E" transform="matrix(1,0,0,1,-5055,-8917.5) translate(0 17.1)"/><use xlink:href="#F" transform="matrix(1,0,0,1,-5055,-8917.5) translate(64.95 17.1)"/><use xlink:href="#G" transform="matrix(1,0,0,1,-5055,-8885.5) translate(0 17.1)"/><use xlink:href="#A" transform="matrix(1,0,0,1,-5055,-8885.5) translate(83.80000000000001 17.1)"/><use xlink:href="#H" transform="matrix(1,0,0,1,-5055,-8853.5) translate(0 17.1)"/><use xlink:href="#C" transform="matrix(1,0,0,1,-5055,-8853.5) translate(60.95 17.1)"/><path d="M-5259-8904h54a5 5 0 0 0 5-5v-22a5 5 0 0 1 5-5h35" stroke="#000" stroke-width="2" fill="none"/><path d="M-5259-8894v-20M-5279-8904h20" stroke="#000" stroke-width="2" fill="#fff"/><path d="M-5121.45-8926l-20-10 20-10" stroke="#000" stroke-width="2" fill="#fff" fill-opacity="0"/><path d="M-5121.45-8936h-20M-5141.45-8936c0 5.52-4.47 10-10 10-5.52 0-10-4.48-10-10s4.48-10 10-10c5.53 0 10 4.48 10 10" stroke="#000" stroke-width="2" fill="#fff"/><path d="M-6400-9147a5 5 0 0 1 5-5h2790a5 5 0 0 1 5 5v1462a5 5 0 0 1-5 5h-2790a5 5 0 0 1-5-5z" stroke="#0c7cba" stroke-width="2" fill-opacity="0"/><path d="M-4539-8904h54a5 5 0 0 1 5 5v22a5 5 0 0 0 5 5h35" stroke="#000" stroke-width="2" fill="none"/><path d="M-4539-8894v-20M-4559-8904h20" stroke="#000" stroke-width="2" fill="#fff"/><path d="M-4401.45-8862l-20-10 20-10" stroke="#000" stroke-width="2" fill="#fff" fill-opacity="0"/><path d="M-4401.45-8872h-20M-4421.45-8872c0 5.52-4.47 10-10 10-5.52 0-10-4.48-10-10s4.48-10 10-10c5.53 0 10 4.48 10 10" stroke="#000" stroke-width="2" fill="#fff"/><path d="M-6384-9227a5 5 0 0 1 5-5h1446a5 5 0 0 1 5 5v54a5 5 0 0 1-5 5h-1446a5 5 0 0 1-5-5z" stroke="#000" stroke-opacity="0" stroke-width="2" fill="#fff" fill-opacity="0"/><use xlink:href="#I" transform="matrix(1,0,0,1,-6364,-9232) translate(0 39.11111111111111)"/><use xlink:href="#J" transform="matrix(1,0,0,1,-6364,-9232) translate(114.27160493827157 39.11111111111111)"/><use xlink:href="#K" transform="matrix(1,0,0,1,-6364,-9232) translate(202.96296296296288 39.11111111111111)"/><use xlink:href="#L" transform="matrix(1,0,0,1,-6364,-9232) translate(331.2592592592591 39.11111111111111)"/><use xlink:href="#M" transform="matrix(1,0,0,1,-6364,-9232) translate(410.2716049382714 39.11111111111111)"/><use xlink:href="#N" transform="matrix(1,0,0,1,-6364,-9232) translate(496.9876543209874 39.11111111111111)"/><path d="M-4112-7659a5 5 0 0 1 5-5h502a5 5 0 0 1 5 5v38a5 5 0 0 1-5 5h-502a5 5 0 0 1-5-5z" stroke="#000" stroke-opacity="0" stroke-width="2" fill="#fff" fill-opacity="0"/><use xlink:href="#O" transform="matrix(1,0,0,1,-4092,-7664) translate(228.54999999999998 27.6)"/><use xlink:href="#P" transform="matrix(1,0,0,1,-4092,-7664) translate(289.45 27.6)"/><use xlink:href="#Q" transform="matrix(1,0,0,1,-4092,-7664) translate(354.35 27.6)"/><use xlink:href="#R" transform="matrix(1,0,0,1,-4092,-7664) translate(393.35 27.6)"/><path d="M-4400-8987a5 5 0 0 1 5-5h630a5 5 0 0 1 5 5v1150a5 5 0 0 1-5 5h-630a5 5 0 0 1-5-5z" fill="#fff"/><path d="M-4400-8952v-35a5 5 0 0 1 5-5h630a5 5 0 0 1 5 5v35" fill="#ccc"/><path d="M-4400-8987a5 5 0 0 1 5-5h630a5 5 0 0 1 5 5v1150a5 5 0 0 1-5 5h-630a5 5 0 0 1-5-5zM-4400-8952h640M-4340-8952v1120" stroke="#282c33" stroke-width="2" fill="none"/><use xlink:href="#S" transform="matrix(1,0,0,1,-4390,-8992) translate(270.55 23.6)"/><use xlink:href="#T" transform="matrix(1,0,0,1,-4390,-8992) translate(311.55 23.6)"/><use xlink:href="#r" transform="matrix(1,0,0,1,-4395,-8949.5) translate(-0.9750000000000014 17.1)"/><use xlink:href="#s" transform="matrix(1,0,0,1,-4335,-8949.5) translate(0 17.1)"/><use xlink:href="#t" transform="matrix(1,0,0,1,-4335,-8949.5) translate(115.75000000000001 17.1)"/><use xlink:href="#d" transform="matrix(1,0,0,1,-4395,-8917.5) translate(13 17.1)"/><use xlink:href="#U" transform="matrix(1,0,0,1,-4335,-8917.5) translate(0 17.1)"/><use xlink:href="#F" transform="matrix(1,0,0,1,-4335,-8917.5) translate(97.75000000000001 17.1)"/><use xlink:href="#V" transform="matrix(1,0,0,1,-4395,-8885.5) translate(13.524999999999999 17.1)"/><use xlink:href="#H" transform="matrix(1,0,0,1,-4335,-8885.5) translate(0 17.1)"/><use xlink:href="#W" transform="matrix(1,0,0,1,-4335,-8885.5) translate(60.95 17.1)"/><use xlink:href="#X" transform="matrix(1,0,0,1,-4335,-8853.5) translate(0 17.1)"/><use xlink:href="#Y" transform="matrix(1,0,0,1,-4335,-8853.5) translate(41 17.1)"/><use xlink:href="#Z" transform="matrix(1,0,0,1,-4335,-8853.5) translate(83.9 17.1)"/><use xlink:href="#aa" transform="matrix(1,0,0,1,-4335,-8853.5) translate(160.85000000000002 17.1)"/><use xlink:href="#X" transform="matrix(1,0,0,1,-4335,-8821.5) translate(0 17.1)"/><use xlink:href="#Y" transform="matrix(1,0,0,1,-4335,-8821.5) translate(41 17.1)"/><use xlink:href="#Z" transform="matrix(1,0,0,1,-4335,-8821.5) translate(83.9 17.1)"/><use xlink:href="#ab" transform="matrix(1,0,0,1,-4335,-8821.5) translate(160.85000000000002 17.1)"/><use xlink:href="#X" transform="matrix(1,0,0,1,-4335,-8789.5) translate(0 17.1)"/><use xlink:href="#Y" transform="matrix(1,0,0,1,-4335,-8789.5) translate(41 17.1)"/><use xlink:href="#Z" transform="matrix(1,0,0,1,-4335,-8789.5) translate(83.9 17.1)"/><use xlink:href="#ac" transform="matrix(1,0,0,1,-4335,-8789.5) translate(160.85000000000002 17.1)"/><use xlink:href="#X" transform="matrix(1,0,0,1,-4335,-8757.5) translate(0 17.1)"/><use xlink:href="#Y" transform="matrix(1,0,0,1,-4335,-8757.5) translate(41 17.1)"/><use xlink:href="#Z" transform="matrix(1,0,0,1,-4335,-8757.5) translate(83.9 17.1)"/><use xlink:href="#ad" transform="matrix(1,0,0,1,-4335,-8757.5) translate(160.85000000000002 17.1)"/><use xlink:href="#X" transform="matrix(1,0,0,1,-4335,-8725.5) translate(0 17.1)"/><use xlink:href="#Y" transform="matrix(1,0,0,1,-4335,-8725.5) translate(41 17.1)"/><use xlink:href="#Z" transform="matrix(1,0,0,1,-4335,-8725.5) translate(83.9 17.1)"/><use xlink:href="#ae" transform="matrix(1,0,0,1,-4335,-8725.5) translate(160.85000000000002 17.1)"/><use xlink:href="#X" transform="matrix(1,0,0,1,-4335,-8693.5) translate(0 17.1)"/><use xlink:href="#Y" transform="matrix(1,0,0,1,-4335,-8693.5) translate(41 17.1)"/><use xlink:href="#Z" transform="matrix(1,0,0,1,-4335,-8693.5) translate(83.9 17.1)"/><use xlink:href="#af" transform="matrix(1,0,0,1,-4335,-8693.5) translate(160.85000000000002 17.1)"/><use xlink:href="#X" transform="matrix(1,0,0,1,-4335,-8661.5) translate(0 17.1)"/><use xlink:href="#Y" transform="matrix(1,0,0,1,-4335,-8661.5) translate(41 17.1)"/><use xlink:href="#Z" transform="matrix(1,0,0,1,-4335,-8661.5) translate(83.9 17.1)"/><use xlink:href="#ag" transform="matrix(1,0,0,1,-4335,-8661.5) translate(160.85000000000002 17.1)"/><use xlink:href="#X" transform="matrix(1,0,0,1,-4335,-8629.5) translate(0 17.1)"/><use xlink:href="#Y" transform="matrix(1,0,0,1,-4335,-8629.5) translate(41 17.1)"/><use xlink:href="#Z" transform="matrix(1,0,0,1,-4335,-8629.5) translate(83.9 17.1)"/><use xlink:href="#ah" transform="matrix(1,0,0,1,-4335,-8629.5) translate(160.85000000000002 17.1)"/><use xlink:href="#X" transform="matrix(1,0,0,1,-4335,-8597.5) translate(0 17.1)"/><use xlink:href="#Y" transform="matrix(1,0,0,1,-4335,-8597.5) translate(41 17.1)"/><use xlink:href="#Z" transform="matrix(1,0,0,1,-4335,-8597.5) translate(83.9 17.1)"/><use xlink:href="#ai" transform="matrix(1,0,0,1,-4335,-8597.5) translate(160.85000000000002 17.1)"/><use xlink:href="#X" transform="matrix(1,0,0,1,-4335,-8565.5) translate(0 17.1)"/><use xlink:href="#Y" transform="matrix(1,0,0,1,-4335,-8565.5) translate(41 17.1)"/><use xlink:href="#Z" transform="matrix(1,0,0,1,-4335,-8565.5) translate(83.9 17.1)"/><use xlink:href="#aj" transform="matrix(1,0,0,1,-4335,-8565.5) translate(160.85000000000002 17.1)"/><use xlink:href="#X" transform="matrix(1,0,0,1,-4335,-8533.5) translate(0 17.1)"/><use xlink:href="#Y" transform="matrix(1,0,0,1,-4335,-8533.5) translate(41 17.1)"/><use xlink:href="#Z" transform="matrix(1,0,0,1,-4335,-8533.5) translate(83.9 17.1)"/><use xlink:href="#ak" transform="matrix(1,0,0,1,-4335,-8533.5) translate(160.85000000000002 17.1)"/><use xlink:href="#X" transform="matrix(1,0,0,1,-4335,-8501.5) translate(0 17.1)"/><use xlink:href="#Y" transform="matrix(1,0,0,1,-4335,-8501.5) translate(41 17.1)"/><use xlink:href="#Z" transform="matrix(1,0,0,1,-4335,-8501.5) translate(83.9 17.1)"/><use xlink:href="#al" transform="matrix(1,0,0,1,-4335,-8501.5) translate(160.85000000000002 17.1)"/><use xlink:href="#X" transform="matrix(1,0,0,1,-4335,-8469.5) translate(0 17.1)"/><use xlink:href="#Y" transform="matrix(1,0,0,1,-4335,-8469.5) translate(41 17.1)"/><use xlink:href="#Z" transform="matrix(1,0,0,1,-4335,-8469.5) translate(83.9 17.1)"/><use xlink:href="#am" transform="matrix(1,0,0,1,-4335,-8469.5) translate(160.85000000000002 17.1)"/><use xlink:href="#X" transform="matrix(1,0,0,1,-4335,-8437.5) translate(0 17.1)"/><use xlink:href="#Y" transform="matrix(1,0,0,1,-4335,-8437.5) translate(41 17.1)"/><use xlink:href="#Z" transform="matrix(1,0,0,1,-4335,-8437.5) translate(83.9 17.1)"/><use xlink:href="#an" transform="matrix(1,0,0,1,-4335,-8437.5) translate(160.85000000000002 17.1)"/><use xlink:href="#X" transform="matrix(1,0,0,1,-4335,-8405.5) translate(0 17.1)"/><use xlink:href="#Y" transform="matrix(1,0,0,1,-4335,-8405.5) translate(41 17.1)"/><use xlink:href="#Z" transform="matrix(1,0,0,1,-4335,-8405.5) translate(83.9 17.1)"/><use xlink:href="#ao" transform="matrix(1,0,0,1,-4335,-8405.5) translate(160.85000000000002 17.1)"/><use xlink:href="#X" transform="matrix(1,0,0,1,-4335,-8373.5) translate(0 17.1)"/><use xlink:href="#Y" transform="matrix(1,0,0,1,-4335,-8373.5) translate(41 17.1)"/><use xlink:href="#Z" transform="matrix(1,0,0,1,-4335,-8373.5) translate(83.9 17.1)"/><use xlink:href="#ap" transform="matrix(1,0,0,1,-4335,-8373.5) translate(160.85000000000002 17.1)"/><use xlink:href="#X" transform="matrix(1,0,0,1,-4335,-8341.5) translate(0 17.1)"/><use xlink:href="#Y" transform="matrix(1,0,0,1,-4335,-8341.5) translate(41 17.1)"/><use xlink:href="#Z" transform="matrix(1,0,0,1,-4335,-8341.5) translate(83.9 17.1)"/><use xlink:href="#aq" transform="matrix(1,0,0,1,-4335,-8341.5) translate(160.85000000000002 17.1)"/><use xlink:href="#X" transform="matrix(1,0,0,1,-4335,-8309.5) translate(0 17.1)"/><use xlink:href="#Y" transform="matrix(1,0,0,1,-4335,-8309.5) translate(41 17.1)"/><use xlink:href="#Z" transform="matrix(1,0,0,1,-4335,-8309.5) translate(83.9 17.1)"/><use xlink:href="#ar" transform="matrix(1,0,0,1,-4335,-8309.5) translate(160.85000000000002 17.1)"/><g><use xlink:href="#X" transform="matrix(1,0,0,1,-4335,-8277.5) translate(0 17.1)"/><use xlink:href="#Y" transform="matrix(1,0,0,1,-4335,-8277.5) translate(41 17.1)"/><use xlink:href="#Z" transform="matrix(1,0,0,1,-4335,-8277.5) translate(83.9 17.1)"/><use xlink:href="#as" transform="matrix(1,0,0,1,-4335,-8277.5) translate(160.85000000000002 17.1)"/></g><g><use xlink:href="#X" transform="matrix(1,0,0,1,-4335,-8245.5) translate(0 17.1)"/><use xlink:href="#Y" transform="matrix(1,0,0,1,-4335,-8245.5) translate(41 17.1)"/><use xlink:href="#Z" transform="matrix(1,0,0,1,-4335,-8245.5) translate(83.9 17.1)"/><use xlink:href="#at" transform="matrix(1,0,0,1,-4335,-8245.5) translate(160.85000000000002 17.1)"/><use xlink:href="#au" transform="matrix(1,0,0,1,-4335,-8245.5) translate(185.85000000000002 17.1)"/></g><g><use xlink:href="#X" transform="matrix(1,0,0,1,-4335,-8213.5) translate(0 17.1)"/><use xlink:href="#Y" transform="matrix(1,0,0,1,-4335,-8213.5) translate(41 17.1)"/><use xlink:href="#Z" transform="matrix(1,0,0,1,-4335,-8213.5) translate(83.9 17.1)"/><use xlink:href="#av" transform="matrix(1,0,0,1,-4335,-8213.5) translate(160.85000000000002 17.1)"/></g><g><use xlink:href="#X" transform="matrix(1,0,0,1,-4335,-8181.5) translate(0 17.1)"/><use xlink:href="#Y" transform="matrix(1,0,0,1,-4335,-8181.5) translate(41 17.1)"/><use xlink:href="#Z" transform="matrix(1,0,0,1,-4335,-8181.5) translate(83.9 17.1)"/><use xlink:href="#aw" transform="matrix(1,0,0,1,-4335,-8181.5) translate(160.85000000000002 17.1)"/><use xlink:href="#au" transform="matrix(1,0,0,1,-4335,-8181.5) translate(185.85000000000002 17.1)"/></g><g><use xlink:href="#X" transform="matrix(1,0,0,1,-4335,-8149.5) translate(0 17.1)"/><use xlink:href="#Y" transform="matrix(1,0,0,1,-4335,-8149.5) translate(41 17.1)"/><use xlink:href="#Z" transform="matrix(1,0,0,1,-4335,-8149.5) translate(83.9 17.1)"/><use xlink:href="#ax" transform="matrix(1,0,0,1,-4335,-8149.5) translate(160.85000000000002 17.1)"/></g><g><use xlink:href="#X" transform="matrix(1,0,0,1,-4335,-8117.5) translate(0 17.1)"/><use xlink:href="#Y" transform="matrix(1,0,0,1,-4335,-8117.5) translate(41 17.1)"/><use xlink:href="#Z" transform="matrix(1,0,0,1,-4335,-8117.5) translate(83.9 17.1)"/><use xlink:href="#ay" transform="matrix(1,0,0,1,-4335,-8117.5) translate(160.85000000000002 17.1)"/></g><g><use xlink:href="#X" transform="matrix(1,0,0,1,-4335,-8085.5) translate(0 17.1)"/><use xlink:href="#Y" transform="matrix(1,0,0,1,-4335,-8085.5) translate(41 17.1)"/><use xlink:href="#Z" transform="matrix(1,0,0,1,-4335,-8085.5) translate(83.9 17.1)"/><use xlink:href="#az" transform="matrix(1,0,0,1,-4335,-8085.5) translate(160.85000000000002 17.1)"/></g><g><use xlink:href="#X" transform="matrix(1,0,0,1,-4335,-8053.5) translate(0 17.1)"/><use xlink:href="#Y" transform="matrix(1,0,0,1,-4335,-8053.5) translate(41 17.1)"/><use xlink:href="#Z" transform="matrix(1,0,0,1,-4335,-8053.5) translate(83.9 17.1)"/><use xlink:href="#aA" transform="matrix(1,0,0,1,-4335,-8053.5) translate(160.85000000000002 17.1)"/></g><g><use xlink:href="#X" transform="matrix(1,0,0,1,-4335,-8021.5) translate(0 17.1)"/><use xlink:href="#Y" transform="matrix(1,0,0,1,-4335,-8021.5) translate(41 17.1)"/><use xlink:href="#Z" transform="matrix(1,0,0,1,-4335,-8021.5) translate(83.9 17.1)"/><use xlink:href="#aB" transform="matrix(1,0,0,1,-4335,-8021.5) translate(160.85000000000002 17.1)"/><use xlink:href="#au" transform="matrix(1,0,0,1,-4335,-8021.5) translate(185.85000000000002 17.1)"/></g><g><use xlink:href="#X" transform="matrix(1,0,0,1,-4335,-7989.5) translate(0 17.1)"/><use xlink:href="#Y" transform="matrix(1,0,0,1,-4335,-7989.5) translate(41 17.1)"/><use xlink:href="#Z" transform="matrix(1,0,0,1,-4335,-7989.5) translate(83.9 17.1)"/><use xlink:href="#aC" transform="matrix(1,0,0,1,-4335,-7989.5) translate(160.85000000000002 17.1)"/></g><g><use xlink:href="#X" transform="matrix(1,0,0,1,-4335,-7957.5) translate(0 17.1)"/><use xlink:href="#Y" transform="matrix(1,0,0,1,-4335,-7957.5) translate(41 17.1)"/><use xlink:href="#Z" transform="matrix(1,0,0,1,-4335,-7957.5) translate(83.9 17.1)"/><use xlink:href="#aD" transform="matrix(1,0,0,1,-4335,-7957.5) translate(160.85000000000002 17.1)"/></g><g><use xlink:href="#X" transform="matrix(1,0,0,1,-4335,-7925.5) translate(0 17.1)"/><use xlink:href="#Y" transform="matrix(1,0,0,1,-4335,-7925.5) translate(41 17.1)"/><use xlink:href="#aE" transform="matrix(1,0,0,1,-4335,-7925.5) translate(83.9 17.1)"/><use xlink:href="#aF" transform="matrix(1,0,0,1,-4335,-7925.5) translate(178.8 17.1)"/></g><g><use xlink:href="#X" transform="matrix(1,0,0,1,-4335,-7893.5) translate(0 17.1)"/><use xlink:href="#Y" transform="matrix(1,0,0,1,-4335,-7893.5) translate(41 17.1)"/><use xlink:href="#aG" transform="matrix(1,0,0,1,-4335,-7893.5) translate(83.9 17.1)"/><use xlink:href="#aH" transform="matrix(1,0,0,1,-4335,-7893.5) translate(161.85000000000002 17.1)"/></g><g><use xlink:href="#aI" transform="matrix(1,0,0,1,-4335,-7861.5) translate(0 17.1)"/><use xlink:href="#aJ" transform="matrix(1,0,0,1,-4335,-7861.5) translate(41 17.1)"/><use xlink:href="#aK" transform="matrix(1,0,0,1,-4335,-7861.5) translate(83.9 17.1)"/></g><path d="M-6240-8276h492v54h-492zM-6240-8222h127v57h-127zM-6113-8222h365v57h-365zM-6240-8165h127v54h-127zM-6113-8165h365v54h-365zM-6240-8111h127v57h-127zM-6113-8111h365v57h-365zM-6240-8054h127v57h-127zM-6113-8054h365v57h-365zM-6240-7997h127v63h-127zM-6113-7997h365v63h-365zM-6240-7934h127v102h-127zM-6113-7934h365v102h-365z" fill="#fff"/><path d="M-6240-8276v54M-5748-8276v54M-6240-8222v57M-6113-8222v57M-5748-8222v57M-6240-8165v54M-6113-8165v54M-5748-8165v54M-6240-8111v57M-6113-8111v57M-5748-8111v57M-6240-8054v57M-6113-8054v57M-5748-8054v57M-6240-7997v63M-6113-7997v63M-5748-7997v63M-6240-7934v102M-6113-7934v102M-5748-7934v102M-6240-8276h492M-6240-8222h127M-6113-8222h365M-6240-8165h127M-6113-8165h365M-6240-8111h127M-6113-8111h365M-6240-8054h127M-6113-8054h365M-6240-7997h127M-6113-7997h365M-6240-7934h127M-6240-7832h127M-6113-7934h365M-6113-7832h365" stroke="#0c7cba" stroke-width="2" fill="none"/><g><use xlink:href="#aL" transform="matrix(1,0,0,1,-6235,-8271) translate(220.6604938271605 26.444444444444443)"/></g><g><use xlink:href="#aM" transform="matrix(1,0,0,1,-6235,-8217) translate(46.5 27.1)"/></g><g><use xlink:href="#aN" transform="matrix(1,0,0,1,-6108,-8217) translate(0 27.1)"/><use xlink:href="#aO" transform="matrix(1,0,0,1,-6108,-8217) translate(66.80000000000001 27.1)"/></g><g><use xlink:href="#aP" transform="matrix(1,0,0,1,-6235,-8160) translate(47.025 25.6)"/></g><g><use xlink:href="#aQ" transform="matrix(1,0,0,1,-6108,-8160) translate(0 25.6)"/><use xlink:href="#aO" transform="matrix(1,0,0,1,-6108,-8160) translate(65.85000000000001 25.6)"/></g><g><use xlink:href="#aR" transform="matrix(1,0,0,1,-6108,-8106) translate(0 27.1)"/><use xlink:href="#aS" transform="matrix(1,0,0,1,-6108,-8106) translate(39 27.1)"/><use xlink:href="#aT" transform="matrix(1,0,0,1,-6108,-8106) translate(59 27.1)"/><use xlink:href="#aU" transform="matrix(1,0,0,1,-6108,-8106) translate(98.95 27.1)"/><use xlink:href="#aV" transform="matrix(1,0,0,1,-6108,-8106) translate(119.9 27.1)"/></g><g><use xlink:href="#aR" transform="matrix(1,0,0,1,-6108,-8049) translate(0 27.1)"/><use xlink:href="#aS" transform="matrix(1,0,0,1,-6108,-8049) translate(39 27.1)"/><use xlink:href="#aT" transform="matrix(1,0,0,1,-6108,-8049) translate(59 27.1)"/><use xlink:href="#aS" transform="matrix(1,0,0,1,-6108,-8049) translate(98.95 27.1)"/><use xlink:href="#aW" transform="matrix(1,0,0,1,-6108,-8049) translate(118.95 27.1)"/></g><g><use xlink:href="#aR" transform="matrix(1,0,0,1,-6108,-7992) translate(0 30.1)"/><use xlink:href="#aS" transform="matrix(1,0,0,1,-6108,-7992) translate(39 30.1)"/><use xlink:href="#aX" transform="matrix(1,0,0,1,-6108,-7992) translate(59 30.1)"/><use xlink:href="#aU" transform="matrix(1,0,0,1,-6108,-7992) translate(94 30.1)"/><use xlink:href="#aW" transform="matrix(1,0,0,1,-6108,-7992) translate(114.95 30.1)"/></g><g><use xlink:href="#aY" transform="matrix(1,0,0,1,-6235,-7929) translate(18.025 49.6)"/><use xlink:href="#aZ" transform="matrix(1,0,0,1,-6235,-7929) translate(54.025 49.6)"/></g><g><use xlink:href="#ba" transform="matrix(1,0,0,1,-6108,-7929) translate(0 28)"/><use xlink:href="#bb" transform="matrix(1,0,0,1,-6108,-7929) translate(43.95 28)"/><use xlink:href="#bc" transform="matrix(1,0,0,1,-6108,-7929) translate(96.9 28)"/><use xlink:href="#bd" transform="matrix(1,0,0,1,-6108,-7929) translate(140.9 28)"/><use xlink:href="#be" transform="matrix(1,0,0,1,-6108,-7929) translate(155.9 28)"/><use xlink:href="#bf" transform="matrix(1,0,0,1,-6108,-7929) translate(222.70000000000002 28)"/><use xlink:href="#bg" transform="matrix(1,0,0,1,-6108,-7929) translate(260.6 28)"/><use xlink:href="#bh" transform="matrix(1,0,0,1,-6108,-7929) translate(0 49.6)"/><use xlink:href="#bi" transform="matrix(1,0,0,1,-6108,-7929) translate(36.65 49.6)"/><use xlink:href="#bj" transform="matrix(1,0,0,1,-6108,-7929) translate(89.5 49.6)"/><use xlink:href="#bk" transform="matrix(1,0,0,1,-6108,-7929) translate(181.3 49.6)"/><use xlink:href="#bl" transform="matrix(1,0,0,1,-6108,-7929) translate(211.3 49.6)"/><use xlink:href="#bm" transform="matrix(1,0,0,1,-6108,-7929) translate(276.1 49.6)"/><use xlink:href="#bn" transform="matrix(1,0,0,1,-6108,-7929) translate(318.1 49.6)"/><use xlink:href="#bo" transform="matrix(1,0,0,1,-6108,-7929) translate(0 71.2)"/><use xlink:href="#bp" transform="matrix(1,0,0,1,-6108,-7929) translate(56.95 71.2)"/></g><path d="M-6187-8081h7" stroke="#0c7cba" stroke-width="2" fill="none"/><path d="M-6187-8071v-20M-6207-8081h20M-6151-8091v20M-6141-8081h-20M-6161-8081c0 5.52-4.48 10-10 10s-10-4.48-10-10 4.48-10 10-10 10 4.48 10 10" stroke="#0c7cba" stroke-width="2" fill="#fff"/><path d="M-6187-8027h11" stroke="#0c7cba" stroke-width="2" fill="none"/><path d="M-6187-8017v-20M-6207-8027h20" stroke="#0c7cba" stroke-width="2" fill="#fff"/><path d="M-6140-8015.04l-19.42-11.06 20.5-8.9" stroke="#0c7cba" stroke-width="2" fill="#fff" fill-opacity="0"/><path d="M-6139.45-8025.02l-19.97-1.08M-6159.4-8026.64c0 5.52-4.48 10-10 10-5.53 0-10-4.48-10-10 0-5.53 4.47-10 10-10 5.52 0 10 4.47 10 10" stroke="#0c7cba" stroke-width="2" fill="#fff"/><path d="M-6184.5-7961.5h31" stroke="#0c7cba" stroke-width="2" fill="none"/><path d="M-6184.5-7951.5v-20M-6204.5-7961.5h20" stroke="#0c7cba" stroke-width="2" fill="#fff"/><path d="M-6133.95-7951.5l-20-10 20-10" stroke="#0c7cba" stroke-width="2" fill="#fff" fill-opacity="0"/><path d="M-6133.95-7961.5h-20M-6153.95-7971.5v20" stroke="#0c7cba" stroke-width="2" fill="#fff"/><defs><path d="M24-248c93 1 206-16 204 79-1 75-69 88-152 82V0H24v-248zm52 121c47 0 100 7 100-41 0-47-54-39-100-39v80" id="bq"/><path d="M135-150c-39-12-60 13-60 57V0H25l-1-190h47c2 13-1 29 3 40 6-28 27-53 61-41v41" id="br"/><path d="M25-224v-37h50v37H25zM25 0v-190h50V0H25" id="bs"/><path d="M220-157c-53 9-28 100-34 157h-49v-107c1-27-5-49-29-50C55-147 81-57 75 0H25l-1-190h47c2 12-1 28 3 38 10-53 101-56 108 0 13-22 24-43 59-42 82 1 51 116 57 194h-49v-107c-1-25-5-48-29-50" id="bt"/><path d="M133-34C117-15 103 5 69 4 32 3 11-16 11-54c-1-60 55-63 116-61 1-26-3-47-28-47-18 1-26 9-28 27l-52-2c7-38 36-58 82-57s74 22 75 68l1 82c-1 14 12 18 25 15v27c-30 8-71 5-69-32zm-48 3c29 0 43-24 42-57-32 0-66-3-65 30 0 17 8 27 23 27" id="bu"/><path d="M123 10C108 53 80 86 19 72V37c35 8 53-11 59-39L3-190h52l48 148c12-52 28-100 44-148h51" id="bv"/><g id="a"><use transform="matrix(0.05,0,0,0.05,0,0)" xlink:href="#bq"/><use transform="matrix(0.05,0,0,0.05,12,0)" xlink:href="#br"/><use transform="matrix(0.05,0,0,0.05,19,0)" xlink:href="#bs"/><use transform="matrix(0.05,0,0,0.05,24,0)" xlink:href="#bt"/><use transform="matrix(0.05,0,0,0.05,40,0)" xlink:href="#bu"/><use transform="matrix(0.05,0,0,0.05,50,0)" xlink:href="#br"/><use transform="matrix(0.05,0,0,0.05,57,0)" xlink:href="#bv"/></g><path d="M186 0v-106H76V0H24v-248h52v99h110v-99h50V0h-50" id="bw"/><path d="M185-48c-13 30-37 53-82 52C43 2 14-33 14-96s30-98 90-98c62 0 83 45 84 108H66c0 31 8 55 39 56 18 0 30-7 34-22zm-45-69c5-46-57-63-70-21-2 6-4 13-4 21h74" id="bx"/><path d="M25 0v-261h50V0H25" id="by"/><path d="M115-3C79 11 28 4 28-45v-112H4v-33h27l15-45h31v45h36v33H77v99c-1 23 16 31 38 25v30" id="bz"/><path d="M114-157C55-157 80-60 75 0H25v-261h50l-1 109c12-26 28-41 61-42 86-1 58 113 63 194h-50c-7-57 23-157-34-157" id="bA"/><g id="b"><use transform="matrix(0.05,0,0,0.05,0,0)" xlink:href="#bw"/><use transform="matrix(0.05,0,0,0.05,12.950000000000001,0)" xlink:href="#bx"/><use transform="matrix(0.05,0,0,0.05,22.950000000000003,0)" xlink:href="#bu"/><use transform="matrix(0.05,0,0,0.05,32.95,0)" xlink:href="#by"/><use transform="matrix(0.05,0,0,0.05,37.95,0)" xlink:href="#bz"/><use transform="matrix(0.05,0,0,0.05,43.900000000000006,0)" xlink:href="#bA"/></g><path d="M175 0L67-191c6 58 2 128 3 191H24v-248h59L193-55c-6-58-2-129-3-193h46V0h-61" id="bB"/><path d="M231 0h-52l-39-155L100 0H48L-1-190h46L77-45c9-52 24-97 36-145h53l37 145 32-145h46" id="bC"/><path d="M110-194c64 0 96 36 96 99 0 64-35 99-97 99-61 0-95-36-95-99 0-62 34-99 96-99zm-1 164c35 0 45-28 45-65 0-40-10-65-43-65-34 0-45 26-45 65 0 36 10 65 43 65" id="bD"/><path d="M147 0L96-86 75-71V0H25v-261h50v150l67-79h53l-66 74L201 0h-54" id="bE"/><g id="c"><use transform="matrix(0.05,0,0,0.05,0,0)" xlink:href="#bB"/><use transform="matrix(0.05,0,0,0.05,12.950000000000001,0)" xlink:href="#bx"/><use transform="matrix(0.05,0,0,0.05,22.950000000000003,0)" xlink:href="#bz"/><use transform="matrix(0.05,0,0,0.05,28.900000000000002,0)" xlink:href="#bC"/><use transform="matrix(0.05,0,0,0.05,42.900000000000006,0)" xlink:href="#bD"/><use transform="matrix(0.05,0,0,0.05,53.85,0)" xlink:href="#br"/><use transform="matrix(0.05,0,0,0.05,60.85,0)" xlink:href="#bE"/></g><path d="M30-248c87 1 191-15 191 75 0 78-77 80-158 76V0H30v-248zm33 125c57 0 124 11 124-50 0-59-68-47-124-48v98" id="bF"/><path d="M194 0L95-120 63-95V0H30v-248h33v124l119-124h40L117-140 236 0h-42" id="bG"/><g id="d"><use transform="matrix(0.05,0,0,0.05,0,0)" xlink:href="#bF"/><use transform="matrix(0.05,0,0,0.05,12,0)" xlink:href="#bG"/></g><g id="e"><use transform="matrix(0.05,0,0,0.05,0,0)" xlink:href="#bB"/><use transform="matrix(0.05,0,0,0.05,12.950000000000001,0)" xlink:href="#bx"/><use transform="matrix(0.05,0,0,0.05,22.950000000000003,0)" xlink:href="#bz"/><use transform="matrix(0.05,0,0,0.05,28.900000000000002,0)" xlink:href="#bC"/><use transform="matrix(0.05,0,0,0.05,42.900000000000006,0)" xlink:href="#bD"/><use transform="matrix(0.05,0,0,0.05,53.85,0)" xlink:href="#br"/><use transform="matrix(0.05,0,0,0.05,60.85,0)" xlink:href="#bE"/></g><path d="M195 0l-88-114-31 24V0H24v-248h52v113l112-113h60L142-143 257 0h-62" id="bH"/><g id="f"><use transform="matrix(0.05,0,0,0.05,0,0)" xlink:href="#bH"/><use transform="matrix(0.05,0,0,0.05,12.950000000000001,0)" xlink:href="#bx"/><use transform="matrix(0.05,0,0,0.05,22.950000000000003,0)" xlink:href="#bv"/></g><path d="M190 0L58-211 59 0H30v-248h39L202-35l-2-213h31V0h-41" id="bI"/><path d="M141-36C126-15 110 5 73 4 37 3 15-17 15-53c-1-64 63-63 125-63 3-35-9-54-41-54-24 1-41 7-42 31l-33-3c5-37 33-52 76-52 45 0 72 20 72 64v82c-1 20 7 32 28 27v20c-31 9-61-2-59-35zM48-53c0 20 12 33 32 33 41-3 63-29 60-74-43 2-92-5-92 41" id="bJ"/><path d="M210-169c-67 3-38 105-44 169h-31v-121c0-29-5-50-35-48C34-165 62-65 56 0H25l-1-190h30c1 10-1 24 2 32 10-44 99-50 107 0 11-21 27-35 58-36 85-2 47 119 55 194h-31v-121c0-29-5-49-35-48" id="bK"/><path d="M100-194c63 0 86 42 84 106H49c0 40 14 67 53 68 26 1 43-12 49-29l28 8c-11 28-37 45-77 45C44 4 14-33 15-96c1-61 26-98 85-98zm52 81c6-60-76-77-97-28-3 7-6 17-6 28h103" id="bL"/><g id="g"><use transform="matrix(0.05,0,0,0.05,0,0)" xlink:href="#bI"/><use transform="matrix(0.05,0,0,0.05,12.950000000000001,0)" xlink:href="#bJ"/><use transform="matrix(0.05,0,0,0.05,22.950000000000003,0)" xlink:href="#bK"/><use transform="matrix(0.05,0,0,0.05,37.900000000000006,0)" xlink:href="#bL"/></g><path d="M30 0v-248h33v221h125V0H30" id="bM"/><path d="M177-190C167-65 218 103 67 71c-23-6-38-20-44-43l32-5c15 47 100 32 89-28v-30C133-14 115 1 83 1 29 1 15-40 15-95c0-56 16-97 71-98 29-1 48 16 59 35 1-10 0-23 2-32h30zM94-22c36 0 50-32 50-73 0-42-14-75-50-75-39 0-46 34-46 75s6 73 46 73" id="bN"/><path d="M24 0v-261h32V0H24" id="bO"/><g id="h"><use transform="matrix(0.05,0,0,0.05,0,0)" xlink:href="#bM"/><use transform="matrix(0.05,0,0,0.05,10,0)" xlink:href="#bL"/><use transform="matrix(0.05,0,0,0.05,20,0)" xlink:href="#bN"/><use transform="matrix(0.05,0,0,0.05,30,0)" xlink:href="#bJ"/><use transform="matrix(0.05,0,0,0.05,40,0)" xlink:href="#bO"/></g><g id="i"><use transform="matrix(0.05,0,0,0.05,0,0)" xlink:href="#bI"/><use transform="matrix(0.05,0,0,0.05,12.950000000000001,0)" xlink:href="#bJ"/><use transform="matrix(0.05,0,0,0.05,22.950000000000003,0)" xlink:href="#bK"/><use transform="matrix(0.05,0,0,0.05,37.900000000000006,0)" xlink:href="#bL"/></g><path d="M1167 0l-161-412H364L202 0H4l575-1409h217L1362 0h-195zM685-1265c-69 226-179 482-263 704h527c-89-236-186-456-264-704" id="bP"/><path d="M908-743c202 21 350 139 350 346 0 273-224 397-518 397H168v-1409h512c331 0 496 114 496 342 0 180-112 291-268 324zm-228-67c187 0 301-60 304-234 6-277-360-200-625-212v446h321zm50 657c212 0 335-66 335-259 0-166-117-249-350-249H359v508h371" id="bQ"/><path d="M1082 0L328-1200c20 384 6 801 10 1200H168v-1409h222l762 1208c-25-412-6-786-12-1208h172V0h-230" id="bR"/><g id="j"><use transform="matrix(0.00927734375,0,0,0.00927734375,0,0)" xlink:href="#bP"/><use transform="matrix(0.00927734375,0,0,0.00927734375,12.6728515625,0)" xlink:href="#bQ"/><use transform="matrix(0.00927734375,0,0,0.00927734375,25.345703125,0)" xlink:href="#bR"/></g><path d="M692-1286c-195 0-347 51-347 223 0 101 58 144 134 179 135 62 487 105 623 191 97 62 170 147 170 304 0 130-50 231-152 302S875 20 690 20C347 20 148-99 93-338l185-37c46 178 190 245 419 246 213 0 386-61 386-250 0-223-244-222-431-271-182-48-288-69-390-156-64-54-103-133-103-247 0-121 47-214 139-279s224-98 396-98c318 0 471 80 545 324l-188 33c-44-155-158-213-359-213" id="bS"/><path d="M336-268c2 98 22 139 114 141 24 0 59-5 104-14V-8C495 8 434 16 372 16c-144 0-216-82-216-245v-722H31v-131h132l53-242h120v242h200v131H336v683" id="bT"/><path d="M797-207C713-60 620 16 414 20 203 24 88-98 87-302c0-112 37-198 111-258s192-93 356-96l243-4c10-201-43-307-232-305-154 2-223 43-242 172l-188-17c31-195 175-292 434-292s410 116 410 364v466c3 95 12 159 101 161 17 0 37-2 59-7V-6c-45 11-92 16-139 16-143-2-188-76-197-217h-6zm-525-92c-1 116 66 187 183 184 230-7 361-164 342-419-124 5-305-2-389 30-83 32-136 92-136 205" id="bU"/><path d="M87-548c0-338 159-553 484-554 325-2 484 204 477 599H276c-1 227 88 385 302 388 146 2 246-65 283-166l158 45C954-65 807 20 578 20 240 20 87-193 87-548zm775-93c-19-206-90-328-294-328-185 0-285 140-290 328h584" id="bV"/><g id="k"><use transform="matrix(0.00927734375,0,0,0.00927734375,0,0)" xlink:href="#bS"/><use transform="matrix(0.00927734375,0,0,0.00927734375,12.6728515625,0)" xlink:href="#bT"/><use transform="matrix(0.00927734375,0,0,0.00927734375,17.95166015625,0)" xlink:href="#bU"/><use transform="matrix(0.00927734375,0,0,0.00927734375,28.5185546875,0)" xlink:href="#bT"/><use transform="matrix(0.00927734375,0,0,0.00927734375,33.79736328125,0)" xlink:href="#bV"/></g><path d="M797-1430c449 5 698 268 698 719S1245 20 795 20C342 20 103-258 97-711c-6-442 260-724 700-719zm-2 1295c338 0 505-227 505-576 0-336-175-563-503-563-332 0-506 222-506 563 0 335 178 576 504 576" id="bW"/><path d="M318-861c55-157 83-241 257-241 24 0 48 3 73 10v165c-24-7-56-10-96-10-75 0-132 33-171 97s-59 156-59 276V0H142c-3-364 6-725-6-1082h170c5 123 8 196 8 221h4" id="bX"/><path d="M824-897c-1-17 6-175 12-185h171c-12 319-6 716-6 1051 0 304-151 456-453 456-226 0-374-90-417-267l181-26c24 102 112 157 241 156 179 0 269-105 269-315 0-57 3-120-2-174C759-74 647 8 472 8 339 8 242-36 180-124S86-350 86-539c0-191 33-332 100-423s169-137 306-137c167 0 273 85 332 202zm-38 579c48-119 46-331 0-450-42-108-118-197-250-197-92 0-154 37-201 100-78 107-74 530-4 643 63 101 251 129 353 47 43-35 77-81 102-143" id="bY"/><path d="M663-1102c251 0 343 119 343 381V0H825v-686c0-183-40-279-223-277-184 2-280 141-280 336V0H142c-3-345 6-754-6-1082h170c5 68 6 94 8 185h3c76-134 157-205 346-205" id="bZ"/><path d="M137-1312v-172h180v172H137zM137 0v-1082h180V0H137" id="ca"/><path d="M513-963c-139 1-238 29-238 149 0 72 41 100 95 127 55 27 348 94 404 125 101 56 176 118 176 263C950-73 758 21 511 20 254 19 107-55 57-254l159-31c34 123 133 168 295 168 156 0 264-34 264-168 0-156-183-165-315-204-171-51-245-68-323-172-26-35-37-82-37-135 0-220 172-304 413-303 232 1 379 74 418 265l-162 20c-23-104-122-150-256-149" id="cb"/><path d="M571-1102c350 0 480 196 482 560 2 357-151 562-488 562C233 20 86-198 86-542c0-373 162-560 485-560zm-8 989c244 0 301-164 301-429 0-266-49-427-290-427-239 0-299 165-299 427 0 252 61 429 288 429" id="cc"/><g id="l"><use transform="matrix(0.00927734375,0,0,0.00927734375,0,0)" xlink:href="#bW"/><use transform="matrix(0.00927734375,0,0,0.00927734375,14.77880859375,0)" xlink:href="#bX"/><use transform="matrix(0.00927734375,0,0,0.00927734375,21.10595703125,0)" xlink:href="#bY"/><use transform="matrix(0.00927734375,0,0,0.00927734375,31.6728515625,0)" xlink:href="#bU"/><use transform="matrix(0.00927734375,0,0,0.00927734375,42.23974609375,0)" xlink:href="#bZ"/><use transform="matrix(0.00927734375,0,0,0.00927734375,52.806640625,0)" xlink:href="#ca"/><use transform="matrix(0.00927734375,0,0,0.00927734375,57.02783203125,0)" xlink:href="#cb"/><use transform="matrix(0.00927734375,0,0,0.00927734375,66.52783203125,0)" xlink:href="#bU"/><use transform="matrix(0.00927734375,0,0,0.00927734375,77.0947265625,0)" xlink:href="#bT"/><use transform="matrix(0.00927734375,0,0,0.00927734375,82.37353515625,0)" xlink:href="#ca"/><use transform="matrix(0.00927734375,0,0,0.00927734375,86.5947265625,0)" xlink:href="#cc"/><use transform="matrix(0.00927734375,0,0,0.00927734375,97.16162109375,0)" xlink:href="#bZ"/></g><g id="m"><use transform="matrix(0.00927734375,0,0,0.00927734375,0,0)" xlink:href="#bS"/><use transform="matrix(0.00927734375,0,0,0.00927734375,12.6728515625,0)" xlink:href="#bT"/><use transform="matrix(0.00927734375,0,0,0.00927734375,17.95166015625,0)" xlink:href="#bU"/><use transform="matrix(0.00927734375,0,0,0.00927734375,28.5185546875,0)" xlink:href="#bX"/><use transform="matrix(0.00927734375,0,0,0.00927734375,34.845703125,0)" xlink:href="#bT"/></g><path d="M634-1409c461-4 751 239 747 690-4 441-249 719-686 719H168v-1409h466zm39 1256c337-8 514-222 516-566 2-353-203-539-559-537H359v1103h314" id="cd"/><g id="n"><use transform="matrix(0.00927734375,0,0,0.00927734375,0,0)" xlink:href="#cd"/><use transform="matrix(0.00927734375,0,0,0.00927734375,13.72119140625,0)" xlink:href="#bU"/><use transform="matrix(0.00927734375,0,0,0.00927734375,24.2880859375,0)" xlink:href="#bT"/><use transform="matrix(0.00927734375,0,0,0.00927734375,29.56689453125,0)" xlink:href="#bV"/></g><path d="M168 0v-1409h1069v156H359v452h818v154H359v491h919V0H168" id="ce"/><path d="M835 0c-5-29-11-137-10-174h-4C759-45 663 20 484 20 177 20 86-201 86-536c0-377 133-566 398-566 178 1 273 67 339 188-4-187-1-380-2-570h180v1261c0 113 2 187 6 223H835zm-14-554c0-255-58-415-289-415-91 0-151 37-196 101-76 109-77 543-1 651 44 63 105 98 195 98 235 0 291-173 291-435" id="cf"/><g id="o"><use transform="matrix(0.00927734375,0,0,0.00927734375,0,0)" xlink:href="#ce"/><use transform="matrix(0.00927734375,0,0,0.00927734375,12.6728515625,0)" xlink:href="#bZ"/><use transform="matrix(0.00927734375,0,0,0.00927734375,23.23974609375,0)" xlink:href="#cf"/></g><path d="M128 0H69L1-190h53L99-40l48-150h52" id="cg"/><path d="M88-194c31-1 46 15 58 34l-1-101h50l1 261h-48c-2-10 0-23-3-31C134-8 116 4 84 4 32 4 16-41 15-95c0-56 19-97 73-99zm17 164c33 0 40-30 41-66 1-37-9-64-41-64s-38 30-39 65c0 43 13 65 39 65" id="ch"/><g id="p"><use transform="matrix(0.05,0,0,0.05,0,0)" xlink:href="#bq"/><use transform="matrix(0.05,0,0,0.05,12,0)" xlink:href="#br"/><use transform="matrix(0.05,0,0,0.05,19,0)" xlink:href="#bD"/><use transform="matrix(0.05,0,0,0.05,29.950000000000003,0)" xlink:href="#cg"/><use transform="matrix(0.05,0,0,0.05,39.95,0)" xlink:href="#bs"/><use transform="matrix(0.05,0,0,0.05,44.95,0)" xlink:href="#ch"/><use transform="matrix(0.05,0,0,0.05,55.900000000000006,0)" xlink:href="#bx"/><use transform="matrix(0.05,0,0,0.05,65.9,0)" xlink:href="#br"/></g><path d="M140-251c80 0 125 45 125 126S219 4 139 4C58 4 15-44 15-125s44-126 125-126zm-1 214c52 0 73-35 73-88 0-50-21-86-72-86-52 0-73 35-73 86s22 88 72 88" id="ci"/><path d="M195-6C206 82 75 100 31 46c-4-6-6-13-8-21l49-6c3 16 16 24 34 25 40 0 42-37 40-79-11 22-30 35-61 35-53 0-70-43-70-97 0-56 18-96 73-97 30 0 46 14 59 34l2-30h47zm-90-29c32 0 41-27 41-63 0-35-9-62-40-62-32 0-39 29-40 63 0 36 9 62 39 62" id="cj"/><path d="M135-194c87-1 58 113 63 194h-50c-7-57 23-157-34-157-59 0-34 97-39 157H25l-1-190h47c2 12-1 28 3 38 12-26 28-41 61-42" id="ck"/><path d="M137-138c1-29-70-34-71-4 15 46 118 7 119 86 1 83-164 76-172 9l43-7c4 19 20 25 44 25 33 8 57-30 24-41C81-84 22-81 20-136c-2-80 154-74 161-7" id="cl"/><g id="q"><use transform="matrix(0.05,0,0,0.05,0,0)" xlink:href="#ci"/><use transform="matrix(0.05,0,0,0.05,14,0)" xlink:href="#br"/><use transform="matrix(0.05,0,0,0.05,21,0)" xlink:href="#cj"/><use transform="matrix(0.05,0,0,0.05,31.950000000000003,0)" xlink:href="#bu"/><use transform="matrix(0.05,0,0,0.05,41.95,0)" xlink:href="#ck"/><use transform="matrix(0.05,0,0,0.05,52.900000000000006,0)" xlink:href="#bs"/><use transform="matrix(0.05,0,0,0.05,57.900000000000006,0)" xlink:href="#cl"/><use transform="matrix(0.05,0,0,0.05,67.9,0)" xlink:href="#bu"/><use transform="matrix(0.05,0,0,0.05,77.9,0)" xlink:href="#bz"/><use transform="matrix(0.05,0,0,0.05,83.85000000000001,0)" xlink:href="#bs"/><use transform="matrix(0.05,0,0,0.05,88.85000000000001,0)" xlink:href="#bD"/><use transform="matrix(0.05,0,0,0.05,99.80000000000001,0)" xlink:href="#ck"/></g><path d="M63-220v92h138v28H63V0H30v-248h175v28H63" id="cm"/><path d="M0 4l72-265h28L28 4H0" id="cn"/><g id="r"><use transform="matrix(0.05,0,0,0.05,0,0)" xlink:href="#cm"/><use transform="matrix(0.05,0,0,0.05,10.950000000000001,0)" xlink:href="#bG"/><use transform="matrix(0.05,0,0,0.05,22.950000000000003,0)" xlink:href="#cn"/><use transform="matrix(0.05,0,0,0.05,27.950000000000003,0)" xlink:href="#bF"/><use transform="matrix(0.05,0,0,0.05,39.95,0)" xlink:href="#bG"/></g><g id="s"><use transform="matrix(0.05,0,0,0.05,0,0)" xlink:href="#ci"/><use transform="matrix(0.05,0,0,0.05,14,0)" xlink:href="#br"/><use transform="matrix(0.05,0,0,0.05,21,0)" xlink:href="#cj"/><use transform="matrix(0.05,0,0,0.05,31.950000000000003,0)" xlink:href="#bu"/><use transform="matrix(0.05,0,0,0.05,41.95,0)" xlink:href="#ck"/><use transform="matrix(0.05,0,0,0.05,52.900000000000006,0)" xlink:href="#bs"/><use transform="matrix(0.05,0,0,0.05,57.900000000000006,0)" xlink:href="#cl"/><use transform="matrix(0.05,0,0,0.05,67.9,0)" xlink:href="#bu"/><use transform="matrix(0.05,0,0,0.05,77.9,0)" xlink:href="#bz"/><use transform="matrix(0.05,0,0,0.05,83.85000000000001,0)" xlink:href="#bs"/><use transform="matrix(0.05,0,0,0.05,88.85000000000001,0)" xlink:href="#bD"/><use transform="matrix(0.05,0,0,0.05,99.80000000000001,0)" xlink:href="#ck"/></g><g id="t"><use transform="matrix(0.05,0,0,0.05,0,0)" xlink:href="#bq"/><use transform="matrix(0.05,0,0,0.05,12,0)" xlink:href="#bu"/><use transform="matrix(0.05,0,0,0.05,22,0)" xlink:href="#bz"/><use transform="matrix(0.05,0,0,0.05,27.950000000000003,0)" xlink:href="#bA"/></g><g id="u"><use transform="matrix(0.05,0,0,0.05,0,0)" xlink:href="#ci"/><use transform="matrix(0.05,0,0,0.05,14,0)" xlink:href="#br"/><use transform="matrix(0.05,0,0,0.05,21,0)" xlink:href="#cj"/><use transform="matrix(0.05,0,0,0.05,31.950000000000003,0)" xlink:href="#bu"/><use transform="matrix(0.05,0,0,0.05,41.95,0)" xlink:href="#ck"/><use transform="matrix(0.05,0,0,0.05,52.900000000000006,0)" xlink:href="#bs"/><use transform="matrix(0.05,0,0,0.05,57.900000000000006,0)" xlink:href="#cl"/><use transform="matrix(0.05,0,0,0.05,67.9,0)" xlink:href="#bu"/><use transform="matrix(0.05,0,0,0.05,77.9,0)" xlink:href="#bz"/><use transform="matrix(0.05,0,0,0.05,83.85000000000001,0)" xlink:href="#bs"/><use transform="matrix(0.05,0,0,0.05,88.85000000000001,0)" xlink:href="#bD"/><use transform="matrix(0.05,0,0,0.05,99.80000000000001,0)" xlink:href="#ck"/></g><path d="M205 0l-28-72H64L36 0H1l101-248h38L239 0h-34zm-38-99l-47-123c-12 45-31 82-46 123h93" id="co"/><path d="M160-131c35 5 61 23 61 61C221 17 115-2 30 0v-248c76 3 177-17 177 60 0 33-19 50-47 57zm-97-11c50-1 110 9 110-42 0-47-63-36-110-37v79zm0 115c55-2 124 14 124-45 0-56-70-42-124-44v89" id="cp"/><g id="v"><use transform="matrix(0.05,0,0,0.05,0,0)" xlink:href="#co"/><use transform="matrix(0.05,0,0,0.05,12,0)" xlink:href="#cp"/><use transform="matrix(0.05,0,0,0.05,24,0)" xlink:href="#bI"/></g><path d="M140-251c81 0 123 46 123 126C263-46 219 4 140 4 59 4 17-45 17-125s42-126 123-126zm0 227c63 0 89-41 89-101s-29-99-89-99c-61 0-89 39-89 99S79-25 140-24" id="cq"/><path d="M114-163C36-179 61-72 57 0H25l-1-190h30c1 12-1 29 2 39 6-27 23-49 58-41v29" id="cr"/><path d="M117-194c89-4 53 116 60 194h-32v-121c0-31-8-49-39-48C34-167 62-67 57 0H25l-1-190h30c1 10-1 24 2 32 11-22 29-35 61-36" id="cs"/><path d="M24-231v-30h32v30H24zM24 0v-190h32V0H24" id="ct"/><path d="M135-143c-3-34-86-38-87 0 15 53 115 12 119 90S17 21 10-45l28-5c4 36 97 45 98 0-10-56-113-15-118-90-4-57 82-63 122-42 12 7 21 19 24 35" id="cu"/><path d="M59-47c-2 24 18 29 38 22v24C64 9 27 4 27-40v-127H5v-23h24l9-43h21v43h35v23H59v120" id="cv"/><path d="M100-194c62-1 85 37 85 99 1 63-27 99-86 99S16-35 15-95c0-66 28-99 85-99zM99-20c44 1 53-31 53-75 0-43-8-75-51-75s-53 32-53 75 10 74 51 75" id="cw"/><g id="w"><use transform="matrix(0.05,0,0,0.05,0,0)" xlink:href="#cq"/><use transform="matrix(0.05,0,0,0.05,14,0)" xlink:href="#cr"/><use transform="matrix(0.05,0,0,0.05,19.95,0)" xlink:href="#bN"/><use transform="matrix(0.05,0,0,0.05,29.950000000000003,0)" xlink:href="#bJ"/><use transform="matrix(0.05,0,0,0.05,39.95,0)" xlink:href="#cs"/><use transform="matrix(0.05,0,0,0.05,49.95,0)" xlink:href="#ct"/><use transform="matrix(0.05,0,0,0.05,53.900000000000006,0)" xlink:href="#cu"/><use transform="matrix(0.05,0,0,0.05,62.900000000000006,0)" xlink:href="#bJ"/><use transform="matrix(0.05,0,0,0.05,72.9,0)" xlink:href="#cv"/><use transform="matrix(0.05,0,0,0.05,77.9,0)" xlink:href="#ct"/><use transform="matrix(0.05,0,0,0.05,81.85000000000001,0)" xlink:href="#cw"/><use transform="matrix(0.05,0,0,0.05,91.85000000000001,0)" xlink:href="#cs"/></g><path d="M127-220V0H93v-220H8v-28h204v28h-85" id="cx"/><path d="M179-190L93 31C79 59 56 82 12 73V49c39 6 53-20 64-50L1-190h34L92-34l54-156h33" id="cy"/><path d="M115-194c55 1 70 41 70 98S169 2 115 4C84 4 66-9 55-30l1 105H24l-1-265h31l2 30c10-21 28-34 59-34zm-8 174c40 0 45-34 45-75s-6-73-45-74c-42 0-51 32-51 76 0 43 10 73 51 73" id="cz"/><g id="x"><use transform="matrix(0.05,0,0,0.05,0,0)" xlink:href="#cx"/><use transform="matrix(0.05,0,0,0.05,9.950000000000001,0)" xlink:href="#cy"/><use transform="matrix(0.05,0,0,0.05,18.950000000000003,0)" xlink:href="#cz"/><use transform="matrix(0.05,0,0,0.05,28.950000000000003,0)" xlink:href="#bL"/></g><path d="M185-189c-5-48-123-54-124 2 14 75 158 14 163 119 3 78-121 87-175 55-17-10-28-26-33-46l33-7c5 56 141 63 141-1 0-78-155-14-162-118-5-82 145-84 179-34 5 7 8 16 11 25" id="cA"/><g id="y"><use transform="matrix(0.05,0,0,0.05,0,0)" xlink:href="#cA"/><use transform="matrix(0.05,0,0,0.05,12,0)" xlink:href="#cv"/><use transform="matrix(0.05,0,0,0.05,17,0)" xlink:href="#bJ"/><use transform="matrix(0.05,0,0,0.05,27,0)" xlink:href="#cv"/><use transform="matrix(0.05,0,0,0.05,32,0)" xlink:href="#bL"/></g><g id="z"><use transform="matrix(0.05,0,0,0.05,0,0)" xlink:href="#cA"/><use transform="matrix(0.05,0,0,0.05,12,0)" xlink:href="#cv"/><use transform="matrix(0.05,0,0,0.05,17,0)" xlink:href="#bJ"/><use transform="matrix(0.05,0,0,0.05,27,0)" xlink:href="#cr"/><use transform="matrix(0.05,0,0,0.05,32.95,0)" xlink:href="#cv"/></g><path d="M30-248c118-7 216 8 213 122C240-48 200 0 122 0H30v-248zM63-27c89 8 146-16 146-99s-60-101-146-95v194" id="cB"/><g id="A"><use transform="matrix(0.05,0,0,0.05,0,0)" xlink:href="#cB"/><use transform="matrix(0.05,0,0,0.05,12.950000000000001,0)" xlink:href="#bJ"/><use transform="matrix(0.05,0,0,0.05,22.950000000000003,0)" xlink:href="#cv"/><use transform="matrix(0.05,0,0,0.05,27.950000000000003,0)" xlink:href="#bL"/></g><path d="M30 0v-248h187v28H63v79h144v27H63v87h162V0H30" id="cC"/><path d="M85-194c31 0 48 13 60 33l-1-100h32l1 261h-30c-2-10 0-23-3-31C134-8 116 4 85 4 32 4 16-35 15-94c0-66 23-100 70-100zm9 24c-40 0-46 34-46 75 0 40 6 74 45 74 42 0 51-32 51-76 0-42-9-74-50-73" id="cD"/><g id="B"><use transform="matrix(0.05,0,0,0.05,0,0)" xlink:href="#cC"/><use transform="matrix(0.05,0,0,0.05,12,0)" xlink:href="#cs"/><use transform="matrix(0.05,0,0,0.05,22,0)" xlink:href="#cD"/></g><g id="C"><use transform="matrix(0.05,0,0,0.05,0,0)" xlink:href="#cx"/><use transform="matrix(0.05,0,0,0.05,8.950000000000001,0)" xlink:href="#bJ"/><use transform="matrix(0.05,0,0,0.05,18.950000000000003,0)" xlink:href="#bN"/><use transform="matrix(0.05,0,0,0.05,28.950000000000003,0)" xlink:href="#cu"/></g><path d="M169-182c-1-43-94-46-97-3 18 66 151 10 154 114 3 95-165 93-204 36-6-8-10-19-12-30l50-8c3 46 112 56 116 5-17-69-150-10-154-114-4-87 153-88 188-35 5 8 8 18 10 28" id="cE"/><path d="M85 4C-2 5 27-109 22-190h50c7 57-23 150 33 157 60-5 35-97 40-157h50l1 190h-47c-2-12 1-28-3-38-12 25-28 42-61 42" id="cF"/><g id="D"><use transform="matrix(0.05,0,0,0.05,0,0)" xlink:href="#cE"/><use transform="matrix(0.05,0,0,0.05,12,0)" xlink:href="#cF"/><use transform="matrix(0.05,0,0,0.05,22.950000000000003,0)" xlink:href="#br"/><use transform="matrix(0.05,0,0,0.05,29.950000000000003,0)" xlink:href="#cg"/><use transform="matrix(0.05,0,0,0.05,39.95,0)" xlink:href="#bx"/><use transform="matrix(0.05,0,0,0.05,49.95,0)" xlink:href="#bv"/></g><g id="E"><use transform="matrix(0.05,0,0,0.05,0,0)" xlink:href="#cE"/><use transform="matrix(0.05,0,0,0.05,12,0)" xlink:href="#cF"/><use transform="matrix(0.05,0,0,0.05,22.950000000000003,0)" xlink:href="#br"/><use transform="matrix(0.05,0,0,0.05,29.950000000000003,0)" xlink:href="#cg"/><use transform="matrix(0.05,0,0,0.05,39.95,0)" xlink:href="#bx"/><use transform="matrix(0.05,0,0,0.05,49.95,0)" xlink:href="#bv"/></g><g id="F"><use transform="matrix(0.05,0,0,0.05,0,0)" xlink:href="#bH"/><use transform="matrix(0.05,0,0,0.05,12.950000000000001,0)" xlink:href="#bx"/><use transform="matrix(0.05,0,0,0.05,22.950000000000003,0)" xlink:href="#bv"/></g><path d="M212-179c-10-28-35-45-73-45-59 0-87 40-87 99 0 60 29 101 89 101 43 0 62-24 78-52l27 14C228-24 195 4 139 4 59 4 22-46 18-125c-6-104 99-153 187-111 19 9 31 26 39 46" id="cG"/><path d="M96-169c-40 0-48 33-48 73s9 75 48 75c24 0 41-14 43-38l32 2c-6 37-31 61-74 61-59 0-76-41-82-99-10-93 101-131 147-64 4 7 5 14 7 22l-32 3c-4-21-16-35-41-35" id="cH"/><g id="G"><use transform="matrix(0.05,0,0,0.05,0,0)" xlink:href="#cG"/><use transform="matrix(0.05,0,0,0.05,12.950000000000001,0)" xlink:href="#cw"/><use transform="matrix(0.05,0,0,0.05,22.950000000000003,0)" xlink:href="#bO"/><use transform="matrix(0.05,0,0,0.05,26.900000000000002,0)" xlink:href="#bO"/><use transform="matrix(0.05,0,0,0.05,30.85,0)" xlink:href="#bL"/><use transform="matrix(0.05,0,0,0.05,40.85,0)" xlink:href="#cH"/><use transform="matrix(0.05,0,0,0.05,49.85,0)" xlink:href="#cv"/><use transform="matrix(0.05,0,0,0.05,54.85,0)" xlink:href="#ct"/><use transform="matrix(0.05,0,0,0.05,58.800000000000004,0)" xlink:href="#cw"/><use transform="matrix(0.05,0,0,0.05,68.80000000000001,0)" xlink:href="#cs"/></g><path d="M84 4C-5 8 30-112 23-190h32v120c0 31 7 50 39 49 72-2 45-101 50-169h31l1 190h-30c-1-10 1-25-2-33-11 22-28 36-60 37" id="cI"/><path d="M108 0H70L1-190h34L89-25l56-165h34" id="cJ"/><g id="H"><use transform="matrix(0.05,0,0,0.05,0,0)" xlink:href="#cA"/><use transform="matrix(0.05,0,0,0.05,12,0)" xlink:href="#cI"/><use transform="matrix(0.05,0,0,0.05,22,0)" xlink:href="#cr"/><use transform="matrix(0.05,0,0,0.05,27.950000000000003,0)" xlink:href="#cJ"/><use transform="matrix(0.05,0,0,0.05,36.95,0)" xlink:href="#bL"/><use transform="matrix(0.05,0,0,0.05,46.95,0)" xlink:href="#cy"/></g><path d="M230 0l2-204L168 0h-37L68-204 70 0H24v-248h70l56 185 57-185h69V0h-46" id="cK"/><path d="M67-125c0 53 21 87 73 88 37 1 54-22 65-47l45 17C233-25 199 4 140 4 58 4 20-42 15-125 8-235 124-281 211-232c18 10 29 29 36 50l-46 12c-8-25-30-41-62-41-52 0-71 34-72 86" id="cL"/><g id="I"><use transform="matrix(0.0987654320987654,0,0,0.0987654320987654,0,0)" xlink:href="#bq"/><use transform="matrix(0.0987654320987654,0,0,0.0987654320987654,23.703703703703695,0)" xlink:href="#cK"/><use transform="matrix(0.0987654320987654,0,0,0.0987654320987654,53.23456790123455,0)" xlink:href="#bw"/><use transform="matrix(0.0987654320987654,0,0,0.0987654320987654,78.81481481481478,0)" xlink:href="#cL"/></g><path d="M24-248c120-7 223 5 221 122C244-46 201 0 124 0H24v-248zM76-40c74 7 117-18 117-86 0-67-45-88-117-82v168" id="cM"/><g id="J"><use transform="matrix(0.0987654320987654,0,0,0.0987654320987654,0,0)" xlink:href="#cK"/><use transform="matrix(0.0987654320987654,0,0,0.0987654320987654,29.530864197530853,0)" xlink:href="#cM"/><use transform="matrix(0.0987654320987654,0,0,0.0987654320987654,55.11111111111109,0)" xlink:href="#cE"/></g><g id="K"><use transform="matrix(0.0987654320987654,0,0,0.0987654320987654,0,0)" xlink:href="#cE"/><use transform="matrix(0.0987654320987654,0,0,0.0987654320987654,23.703703703703695,0)" xlink:href="#cF"/><use transform="matrix(0.0987654320987654,0,0,0.0987654320987654,45.333333333333314,0)" xlink:href="#br"/><use transform="matrix(0.0987654320987654,0,0,0.0987654320987654,59.16049382716047,0)" xlink:href="#cg"/><use transform="matrix(0.0987654320987654,0,0,0.0987654320987654,78.91358024691355,0)" xlink:href="#bx"/><use transform="matrix(0.0987654320987654,0,0,0.0987654320987654,98.66666666666663,0)" xlink:href="#bv"/></g><path d="M23 0v-37h61v-169l-59 37v-38l62-41h46v211h57V0H23" id="cN"/><path d="M24 0v-54h51V0H24" id="cO"/><path d="M101-251c68 0 84 54 84 127C185-50 166 4 99 4S15-52 14-124c-1-75 17-127 87-127zm-1 216c37-5 36-46 36-89s4-89-36-89c-39 0-36 45-36 89 0 43-3 85 36 89" id="cP"/><g id="L"><use transform="matrix(0.0987654320987654,0,0,0.0987654320987654,0,0)" xlink:href="#cg"/><use transform="matrix(0.0987654320987654,0,0,0.0987654320987654,19.753086419753078,0)" xlink:href="#cN"/><use transform="matrix(0.0987654320987654,0,0,0.0987654320987654,39.506172839506156,0)" xlink:href="#cO"/><use transform="matrix(0.0987654320987654,0,0,0.0987654320987654,49.382716049382694,0)" xlink:href="#cP"/></g><g id="M"><use transform="matrix(0.0987654320987654,0,0,0.0987654320987654,0,0)" xlink:href="#cM"/><use transform="matrix(0.0987654320987654,0,0,0.0987654320987654,25.58024691358024,0)" xlink:href="#bu"/><use transform="matrix(0.0987654320987654,0,0,0.0987654320987654,45.333333333333314,0)" xlink:href="#bz"/><use transform="matrix(0.0987654320987654,0,0,0.0987654320987654,57.0864197530864,0)" xlink:href="#bu"/></g><g id="N"><use transform="matrix(0.0987654320987654,0,0,0.0987654320987654,0,0)" xlink:href="#cK"/><use transform="matrix(0.0987654320987654,0,0,0.0987654320987654,29.530864197530853,0)" xlink:href="#bD"/><use transform="matrix(0.0987654320987654,0,0,0.0987654320987654,51.16049382716048,0)" xlink:href="#ch"/><use transform="matrix(0.0987654320987654,0,0,0.0987654320987654,72.7901234567901,0)" xlink:href="#bx"/><use transform="matrix(0.0987654320987654,0,0,0.0987654320987654,92.54320987654317,0)" xlink:href="#by"/></g><g id="O"><use transform="matrix(0.05,0,0,0.05,0,0)" xlink:href="#bM"/><use transform="matrix(0.05,0,0,0.05,10,0)" xlink:href="#cw"/><use transform="matrix(0.05,0,0,0.05,20,0)" xlink:href="#bN"/><use transform="matrix(0.05,0,0,0.05,30,0)" xlink:href="#ct"/><use transform="matrix(0.05,0,0,0.05,33.95,0)" xlink:href="#cH"/><use transform="matrix(0.05,0,0,0.05,42.95,0)" xlink:href="#bO"/><use transform="matrix(0.05,0,0,0.05,46.900000000000006,0)" xlink:href="#cy"/></g><path d="M137 0h-34L2-248h35l83 218 83-218h36" id="cQ"/><g id="P"><use transform="matrix(0.05,0,0,0.05,0,0)" xlink:href="#cQ"/><use transform="matrix(0.05,0,0,0.05,11,0)" xlink:href="#bL"/><use transform="matrix(0.05,0,0,0.05,21,0)" xlink:href="#cr"/><use transform="matrix(0.05,0,0,0.05,26.950000000000003,0)" xlink:href="#cu"/><use transform="matrix(0.05,0,0,0.05,35.95,0)" xlink:href="#ct"/><use transform="matrix(0.05,0,0,0.05,39.900000000000006,0)" xlink:href="#cw"/><use transform="matrix(0.05,0,0,0.05,49.900000000000006,0)" xlink:href="#cs"/></g><path d="M27 0v-27h64v-190l-56 39v-29l58-41h29v221h61V0H27" id="cR"/><path d="M33 0v-38h34V0H33" id="cS"/><path d="M101-251c68 0 85 55 85 127S166 4 100 4C33 4 14-52 14-124c0-73 17-127 87-127zm-1 229c47 0 54-49 54-102s-4-102-53-102c-51 0-55 48-55 102 0 53 5 102 54 102" id="cT"/><g id="Q"><use transform="matrix(0.05,0,0,0.05,0,0)" xlink:href="#cJ"/><use transform="matrix(0.05,0,0,0.05,9,0)" xlink:href="#cR"/><use transform="matrix(0.05,0,0,0.05,19,0)" xlink:href="#cS"/><use transform="matrix(0.05,0,0,0.05,24,0)" xlink:href="#cT"/></g><path d="M99-251c64 0 84 50 84 122C183-37 130 33 47-8c-14-7-20-23-25-40l30-5c6 39 69 39 84 7 9-19 16-44 16-74-10 22-31 35-62 35-49 0-73-33-73-83 0-54 28-83 82-83zm-1 141c31-1 51-18 51-49 0-36-14-67-51-67-34 0-49 23-49 58 0 34 15 58 49 58" id="cU"/><path d="M101-251c82-7 93 87 43 132L82-64C71-53 59-42 53-27h129V0H18c2-99 128-94 128-182 0-28-16-43-45-43s-46 15-49 41l-32-3c6-41 34-60 81-64" id="cV"/><path d="M126-127c33 6 58 20 58 59 0 88-139 92-164 29-3-8-5-16-6-25l32-3c6 27 21 44 54 44 32 0 52-15 52-46 0-38-36-46-79-43v-28c39 1 72-4 72-42 0-27-17-43-46-43-28 0-47 15-49 41l-32-3c6-42 35-63 81-64 48-1 79 21 79 65 0 36-21 52-52 59" id="cW"/><g id="R"><use transform="matrix(0.05,0,0,0.05,0,0)" xlink:href="#cR"/><use transform="matrix(0.05,0,0,0.05,8.65,0)" xlink:href="#cR"/><use transform="matrix(0.05,0,0,0.05,18.65,0)" xlink:href="#cn"/><use transform="matrix(0.05,0,0,0.05,23.65,0)" xlink:href="#cU"/><use transform="matrix(0.05,0,0,0.05,33.65,0)" xlink:href="#cn"/><use transform="matrix(0.05,0,0,0.05,38.65,0)" xlink:href="#cV"/><use transform="matrix(0.05,0,0,0.05,48.65,0)" xlink:href="#cT"/><use transform="matrix(0.05,0,0,0.05,58.650000000000006,0)" xlink:href="#cV"/><use transform="matrix(0.05,0,0,0.05,68.65,0)" xlink:href="#cW"/></g><path d="M146-102V0H94v-102L6-248h54l60 105 60-105h54" id="cX"/><path d="M24 0v-248h195v40H76v63h132v40H76v65h150V0H24" id="cY"/><g id="S"><use transform="matrix(0.05,0,0,0.05,0,0)" xlink:href="#cX"/><use transform="matrix(0.05,0,0,0.05,12,0)" xlink:href="#cY"/><use transform="matrix(0.05,0,0,0.05,24,0)" xlink:href="#cE"/></g><g id="T"><use transform="matrix(0.05,0,0,0.05,0,0)" xlink:href="#bq"/><use transform="matrix(0.05,0,0,0.05,12,0)" xlink:href="#bw"/><use transform="matrix(0.05,0,0,0.05,24.950000000000003,0)" xlink:href="#bB"/></g><path d="M24 0v-248h52V0H24" id="cZ"/><g id="U"><use transform="matrix(0.05,0,0,0.05,0,0)" xlink:href="#cZ"/><use transform="matrix(0.05,0,0,0.05,5,0)" xlink:href="#ck"/><use transform="matrix(0.05,0,0,0.05,15.950000000000001,0)" xlink:href="#cl"/><use transform="matrix(0.05,0,0,0.05,25.950000000000003,0)" xlink:href="#bz"/><use transform="matrix(0.05,0,0,0.05,31.900000000000002,0)" xlink:href="#br"/><use transform="matrix(0.05,0,0,0.05,38.900000000000006,0)" xlink:href="#cF"/><use transform="matrix(0.05,0,0,0.05,49.85000000000001,0)" xlink:href="#bt"/><use transform="matrix(0.05,0,0,0.05,65.85000000000001,0)" xlink:href="#bx"/><use transform="matrix(0.05,0,0,0.05,75.85000000000001,0)" xlink:href="#ck"/><use transform="matrix(0.05,0,0,0.05,86.80000000000001,0)" xlink:href="#bz"/></g><g id="V"><use transform="matrix(0.05,0,0,0.05,0,0)" xlink:href="#cm"/><use transform="matrix(0.05,0,0,0.05,10.950000000000001,0)" xlink:href="#bG"/></g><g id="W"><use transform="matrix(0.05,0,0,0.05,0,0)" xlink:href="#bG"/><use transform="matrix(0.05,0,0,0.05,12,0)" xlink:href="#bL"/><use transform="matrix(0.05,0,0,0.05,22,0)" xlink:href="#cy"/></g><path d="M137-103V0h-34v-103L8-248h37l75 118 75-118h37" id="da"/><g id="X"><use transform="matrix(0.05,0,0,0.05,0,0)" xlink:href="#da"/><use transform="matrix(0.05,0,0,0.05,12,0)" xlink:href="#cC"/><use transform="matrix(0.05,0,0,0.05,24,0)" xlink:href="#cA"/></g><path d="M197 0v-115H63V0H30v-248h33v105h134v-105h34V0h-34" id="db"/><g id="Y"><use transform="matrix(0.05,0,0,0.05,0,0)" xlink:href="#bF"/><use transform="matrix(0.05,0,0,0.05,12,0)" xlink:href="#db"/><use transform="matrix(0.05,0,0,0.05,24.950000000000003,0)" xlink:href="#bI"/></g><path d="M140-251c81 0 123 46 123 126C263-53 228-8 163 1c7 30 30 48 69 40v23c-55 16-95-15-103-61C56-3 17-48 17-125c0-80 42-126 123-126zm0 227c63 0 89-41 89-101s-29-99-89-99c-61 0-89 39-89 99S79-25 140-24" id="dc"/><g id="Z"><use transform="matrix(0.05,0,0,0.05,0,0)" xlink:href="#dc"/><use transform="matrix(0.05,0,0,0.05,14,0)" xlink:href="#cI"/><use transform="matrix(0.05,0,0,0.05,24,0)" xlink:href="#bL"/><use transform="matrix(0.05,0,0,0.05,34,0)" xlink:href="#cu"/><use transform="matrix(0.05,0,0,0.05,43,0)" xlink:href="#cv"/><use transform="matrix(0.05,0,0,0.05,48,0)" xlink:href="#ct"/><use transform="matrix(0.05,0,0,0.05,51.95,0)" xlink:href="#cw"/><use transform="matrix(0.05,0,0,0.05,61.95,0)" xlink:href="#cs"/></g><use transform="matrix(0.05,0,0,0.05,0,0)" xlink:href="#cR" id="aa"/><use transform="matrix(0.05,0,0,0.05,0,0)" xlink:href="#cV" id="ab"/><use transform="matrix(0.05,0,0,0.05,0,0)" xlink:href="#cW" id="ac"/><path d="M155-56V0h-30v-56H8v-25l114-167h33v167h35v25h-35zm-30-156c-27 46-58 90-88 131h88v-131" id="dd"/><use transform="matrix(0.05,0,0,0.05,0,0)" xlink:href="#dd" id="ad"/><path d="M54-142c48-35 137-8 131 61C196 18 31 33 14-55l32-4c7 23 22 37 52 37 35-1 51-22 54-58 4-55-73-65-99-34H22l8-134h141v27H59" id="de"/><use transform="matrix(0.05,0,0,0.05,0,0)" xlink:href="#de" id="ae"/><path d="M110-160c48 1 74 30 74 79 0 53-28 85-80 85-65 0-83-55-86-122-5-90 50-162 133-122 14 7 22 21 27 39l-31 6c-5-40-67-38-82-6-9 19-15 44-15 74 11-20 30-34 60-33zm-7 138c34 0 49-23 49-58s-16-56-50-56c-29 0-50 16-49 49 1 36 15 65 50 65" id="df"/><use transform="matrix(0.05,0,0,0.05,0,0)" xlink:href="#df" id="af"/><path d="M64 0c3-98 48-159 88-221H18v-27h164v26C143-157 98-101 97 0H64" id="dg"/><use transform="matrix(0.05,0,0,0.05,0,0)" xlink:href="#dg" id="ag"/><path d="M134-131c28 9 52 24 51 62-1 50-34 73-85 73S17-19 16-69c0-36 21-54 49-61-75-25-45-126 34-121 46 3 78 18 79 63 0 33-17 51-44 57zm-34-11c31 1 46-15 46-44 0-28-17-43-47-42-29 0-46 13-45 42 1 28 16 44 46 44zm1 122c35 0 51-18 51-52 0-30-18-46-53-46-33 0-51 17-51 47 0 34 19 51 53 51" id="dh"/><use transform="matrix(0.05,0,0,0.05,0,0)" xlink:href="#dh" id="ah"/><use transform="matrix(0.05,0,0,0.05,0,0)" xlink:href="#cU" id="ai"/><g id="aj"><use transform="matrix(0.05,0,0,0.05,0,0)" xlink:href="#cR"/><use transform="matrix(0.05,0,0,0.05,10,0)" xlink:href="#cT"/></g><g id="ak"><use transform="matrix(0.05,0,0,0.05,0,0)" xlink:href="#cR"/><use transform="matrix(0.05,0,0,0.05,8.65,0)" xlink:href="#cR"/></g><g id="al"><use transform="matrix(0.05,0,0,0.05,0,0)" xlink:href="#cR"/><use transform="matrix(0.05,0,0,0.05,10,0)" xlink:href="#cV"/></g><g id="am"><use transform="matrix(0.05,0,0,0.05,0,0)" xlink:href="#cR"/><use transform="matrix(0.05,0,0,0.05,10,0)" xlink:href="#cW"/></g><g id="an"><use transform="matrix(0.05,0,0,0.05,0,0)" xlink:href="#cR"/><use transform="matrix(0.05,0,0,0.05,10,0)" xlink:href="#dd"/></g><g id="ao"><use transform="matrix(0.05,0,0,0.05,0,0)" xlink:href="#cR"/><use transform="matrix(0.05,0,0,0.05,10,0)" xlink:href="#de"/></g><g id="ap"><use transform="matrix(0.05,0,0,0.05,0,0)" xlink:href="#cR"/><use transform="matrix(0.05,0,0,0.05,10,0)" xlink:href="#df"/></g><g id="aq"><use transform="matrix(0.05,0,0,0.05,0,0)" xlink:href="#cR"/><use transform="matrix(0.05,0,0,0.05,10,0)" xlink:href="#dg"/></g><g id="ar"><use transform="matrix(0.05,0,0,0.05,0,0)" xlink:href="#cR"/><use transform="matrix(0.05,0,0,0.05,10,0)" xlink:href="#dh"/></g><g id="as"><use transform="matrix(0.05,0,0,0.05,0,0)" xlink:href="#cR"/><use transform="matrix(0.05,0,0,0.05,10,0)" xlink:href="#cU"/></g><g id="at"><use transform="matrix(0.05,0,0,0.05,0,0)" xlink:href="#cR"/><use transform="matrix(0.05,0,0,0.05,10,0)" xlink:href="#cU"/></g><path d="M106-169C34-169 62-67 57 0H25v-261h32l-1 103c12-21 28-36 61-36 89 0 53 116 60 194h-32v-121c2-32-8-49-39-48" id="di"/><g id="au"><use transform="matrix(0.05,0,0,0.05,0,0)" xlink:href="#cq"/><use transform="matrix(0.05,0,0,0.05,14,0)" xlink:href="#cv"/><use transform="matrix(0.05,0,0,0.05,19,0)" xlink:href="#di"/><use transform="matrix(0.05,0,0,0.05,29,0)" xlink:href="#bL"/><use transform="matrix(0.05,0,0,0.05,39,0)" xlink:href="#cr"/></g><g id="av"><use transform="matrix(0.05,0,0,0.05,0,0)" xlink:href="#cV"/><use transform="matrix(0.05,0,0,0.05,10,0)" xlink:href="#cT"/></g><g id="aw"><use transform="matrix(0.05,0,0,0.05,0,0)" xlink:href="#cV"/><use transform="matrix(0.05,0,0,0.05,10,0)" xlink:href="#cT"/></g><g id="ax"><use transform="matrix(0.05,0,0,0.05,0,0)" xlink:href="#cV"/><use transform="matrix(0.05,0,0,0.05,10,0)" xlink:href="#cR"/></g><g id="ay"><use transform="matrix(0.05,0,0,0.05,0,0)" xlink:href="#cV"/><use transform="matrix(0.05,0,0,0.05,10,0)" xlink:href="#cV"/></g><g id="az"><use transform="matrix(0.05,0,0,0.05,0,0)" xlink:href="#cV"/><use transform="matrix(0.05,0,0,0.05,10,0)" xlink:href="#cW"/></g><g id="aA"><use transform="matrix(0.05,0,0,0.05,0,0)" xlink:href="#cV"/><use transform="matrix(0.05,0,0,0.05,10,0)" xlink:href="#dd"/></g><g id="aB"><use transform="matrix(0.05,0,0,0.05,0,0)" xlink:href="#cV"/><use transform="matrix(0.05,0,0,0.05,10,0)" xlink:href="#dd"/></g><g id="aC"><use transform="matrix(0.05,0,0,0.05,0,0)" xlink:href="#cV"/><use transform="matrix(0.05,0,0,0.05,10,0)" xlink:href="#de"/></g><g id="aD"><use transform="matrix(0.05,0,0,0.05,0,0)" xlink:href="#cV"/><use transform="matrix(0.05,0,0,0.05,10,0)" xlink:href="#df"/></g><path d="M141 0L90-78 38 0H4l68-98-65-92h35l48 74 47-74h35l-64 92 68 98h-35" id="dj"/><g id="aE"><use transform="matrix(0.05,0,0,0.05,0,0)" xlink:href="#cC"/><use transform="matrix(0.05,0,0,0.05,12,0)" xlink:href="#dj"/><use transform="matrix(0.05,0,0,0.05,21,0)" xlink:href="#cz"/><use transform="matrix(0.05,0,0,0.05,31,0)" xlink:href="#bL"/><use transform="matrix(0.05,0,0,0.05,41,0)" xlink:href="#cr"/><use transform="matrix(0.05,0,0,0.05,46.95,0)" xlink:href="#ct"/><use transform="matrix(0.05,0,0,0.05,50.900000000000006,0)" xlink:href="#bL"/><use transform="matrix(0.05,0,0,0.05,60.900000000000006,0)" xlink:href="#cs"/><use transform="matrix(0.05,0,0,0.05,70.9,0)" xlink:href="#cH"/><use transform="matrix(0.05,0,0,0.05,79.9,0)" xlink:href="#bL"/></g><g id="aF"><use transform="matrix(0.05,0,0,0.05,0,0)" xlink:href="#cA"/><use transform="matrix(0.05,0,0,0.05,12,0)" xlink:href="#cH"/><use transform="matrix(0.05,0,0,0.05,21,0)" xlink:href="#bJ"/><use transform="matrix(0.05,0,0,0.05,31,0)" xlink:href="#bO"/><use transform="matrix(0.05,0,0,0.05,34.95,0)" xlink:href="#bL"/></g><g id="aG"><use transform="matrix(0.05,0,0,0.05,0,0)" xlink:href="#cq"/><use transform="matrix(0.05,0,0,0.05,14,0)" xlink:href="#cI"/><use transform="matrix(0.05,0,0,0.05,24,0)" xlink:href="#cv"/><use transform="matrix(0.05,0,0,0.05,29,0)" xlink:href="#cH"/><use transform="matrix(0.05,0,0,0.05,38,0)" xlink:href="#cw"/><use transform="matrix(0.05,0,0,0.05,48,0)" xlink:href="#bK"/><use transform="matrix(0.05,0,0,0.05,62.95,0)" xlink:href="#bL"/></g><g id="aH"><use transform="matrix(0.05,0,0,0.05,0,0)" xlink:href="#cA"/><use transform="matrix(0.05,0,0,0.05,12,0)" xlink:href="#cH"/><use transform="matrix(0.05,0,0,0.05,21,0)" xlink:href="#bJ"/><use transform="matrix(0.05,0,0,0.05,31,0)" xlink:href="#bO"/><use transform="matrix(0.05,0,0,0.05,34.95,0)" xlink:href="#bL"/></g><g id="aI"><use transform="matrix(0.05,0,0,0.05,0,0)" xlink:href="#da"/><use transform="matrix(0.05,0,0,0.05,12,0)" xlink:href="#cC"/><use transform="matrix(0.05,0,0,0.05,24,0)" xlink:href="#cA"/></g><g id="aJ"><use transform="matrix(0.05,0,0,0.05,0,0)" xlink:href="#bF"/><use transform="matrix(0.05,0,0,0.05,12,0)" xlink:href="#db"/><use transform="matrix(0.05,0,0,0.05,24.950000000000003,0)" xlink:href="#bI"/></g><g id="aK"><use transform="matrix(0.05,0,0,0.05,0,0)" xlink:href="#cx"/><use transform="matrix(0.05,0,0,0.05,8.950000000000001,0)" xlink:href="#bJ"/><use transform="matrix(0.05,0,0,0.05,18.950000000000003,0)" xlink:href="#bN"/><use transform="matrix(0.05,0,0,0.05,28.950000000000003,0)" xlink:href="#cu"/></g><g id="aL"><use transform="matrix(0.061728395061728385,0,0,0.061728395061728385,0,0)" xlink:href="#bH"/><use transform="matrix(0.061728395061728385,0,0,0.061728395061728385,15.987654320987652,0)" xlink:href="#bx"/><use transform="matrix(0.061728395061728385,0,0,0.061728395061728385,28.33333333333333,0)" xlink:href="#bv"/></g><g id="aM"><use transform="matrix(0.05,0,0,0.05,0,0)" xlink:href="#bF"/><use transform="matrix(0.05,0,0,0.05,12,0)" xlink:href="#bG"/></g><g id="aN"><use transform="matrix(0.05,0,0,0.05,0,0)" xlink:href="#bF"/><use transform="matrix(0.05,0,0,0.05,12,0)" xlink:href="#cr"/><use transform="matrix(0.05,0,0,0.05,17.95,0)" xlink:href="#ct"/><use transform="matrix(0.05,0,0,0.05,21.9,0)" xlink:href="#bK"/><use transform="matrix(0.05,0,0,0.05,36.85,0)" xlink:href="#bJ"/><use transform="matrix(0.05,0,0,0.05,46.85,0)" xlink:href="#cr"/><use transform="matrix(0.05,0,0,0.05,52.800000000000004,0)" xlink:href="#cy"/></g><g id="aO"><use transform="matrix(0.05,0,0,0.05,0,0)" xlink:href="#bG"/><use transform="matrix(0.05,0,0,0.05,12,0)" xlink:href="#bL"/><use transform="matrix(0.05,0,0,0.05,22,0)" xlink:href="#cy"/></g><g id="aP"><use transform="matrix(0.05,0,0,0.05,0,0)" xlink:href="#cm"/><use transform="matrix(0.05,0,0,0.05,10.950000000000001,0)" xlink:href="#bG"/></g><g id="aQ"><use transform="matrix(0.05,0,0,0.05,0,0)" xlink:href="#cm"/><use transform="matrix(0.05,0,0,0.05,10.950000000000001,0)" xlink:href="#cw"/><use transform="matrix(0.05,0,0,0.05,20.950000000000003,0)" xlink:href="#cr"/><use transform="matrix(0.05,0,0,0.05,26.900000000000002,0)" xlink:href="#bL"/><use transform="matrix(0.05,0,0,0.05,36.900000000000006,0)" xlink:href="#ct"/><use transform="matrix(0.05,0,0,0.05,40.85000000000001,0)" xlink:href="#bN"/><use transform="matrix(0.05,0,0,0.05,50.85000000000001,0)" xlink:href="#cs"/></g><g id="aR"><use transform="matrix(0.05,0,0,0.05,0,0)" xlink:href="#cq"/><use transform="matrix(0.05,0,0,0.05,14,0)" xlink:href="#cs"/><use transform="matrix(0.05,0,0,0.05,24,0)" xlink:href="#bL"/></g><g id="aS"><use transform="matrix(0.05,0,0,0.05,0,0)" xlink:href="#cv"/><use transform="matrix(0.05,0,0,0.05,5,0)" xlink:href="#cw"/></g><path d="M9 0v-24l116-142H16v-24h144v24L44-24h123V0H9" id="dk"/><g id="aT"><use transform="matrix(0.05,0,0,0.05,0,0)" xlink:href="#dk"/><use transform="matrix(0.05,0,0,0.05,9,0)" xlink:href="#bL"/><use transform="matrix(0.05,0,0,0.05,19,0)" xlink:href="#cr"/><use transform="matrix(0.05,0,0,0.05,24.95,0)" xlink:href="#cw"/></g><g id="aU"><use transform="matrix(0.05,0,0,0.05,0,0)" xlink:href="#cw"/><use transform="matrix(0.05,0,0,0.05,10,0)" xlink:href="#cr"/></g><g id="aV"><use transform="matrix(0.05,0,0,0.05,0,0)" xlink:href="#cw"/><use transform="matrix(0.05,0,0,0.05,10,0)" xlink:href="#cs"/><use transform="matrix(0.05,0,0,0.05,20,0)" xlink:href="#bL"/></g><g id="aW"><use transform="matrix(0.05,0,0,0.05,0,0)" xlink:href="#bK"/><use transform="matrix(0.05,0,0,0.05,14.950000000000001,0)" xlink:href="#cw"/><use transform="matrix(0.05,0,0,0.05,24.950000000000003,0)" xlink:href="#cr"/><use transform="matrix(0.05,0,0,0.05,30.900000000000002,0)" xlink:href="#bL"/></g><g id="aX"><use transform="matrix(0.05,0,0,0.05,0,0)" xlink:href="#cw"/><use transform="matrix(0.05,0,0,0.05,10,0)" xlink:href="#cs"/><use transform="matrix(0.05,0,0,0.05,20,0)" xlink:href="#bL"/></g><g id="aY"><use transform="matrix(0.05,0,0,0.05,0,0)" xlink:href="#bG"/><use transform="matrix(0.05,0,0,0.05,12,0)" xlink:href="#bL"/><use transform="matrix(0.05,0,0,0.05,22,0)" xlink:href="#cy"/></g><g id="aZ"><use transform="matrix(0.05,0,0,0.05,0,0)" xlink:href="#cs"/><use transform="matrix(0.05,0,0,0.05,10,0)" xlink:href="#bJ"/><use transform="matrix(0.05,0,0,0.05,20,0)" xlink:href="#bK"/><use transform="matrix(0.05,0,0,0.05,34.95,0)" xlink:href="#bL"/></g><path d="M240 0l2-218c-23 76-54 145-80 218h-23L58-218 59 0H30v-248h44l77 211c21-75 51-140 76-211h43V0h-30" id="dl"/><g id="ba"><use transform="matrix(0.05,0,0,0.05,0,0)" xlink:href="#dl"/><use transform="matrix(0.05,0,0,0.05,14.950000000000001,0)" xlink:href="#cw"/><use transform="matrix(0.05,0,0,0.05,24.950000000000003,0)" xlink:href="#cu"/><use transform="matrix(0.05,0,0,0.05,33.95,0)" xlink:href="#cv"/></g><path d="M115-194c53 0 69 39 70 98 0 66-23 100-70 100C84 3 66-7 56-30L54 0H23l1-261h32v101c10-23 28-34 59-34zm-8 174c40 0 45-34 45-75 0-40-5-75-45-74-42 0-51 32-51 76 0 43 10 73 51 73" id="dm"/><g id="bb"><use transform="matrix(0.05,0,0,0.05,0,0)" xlink:href="#cv"/><use transform="matrix(0.05,0,0,0.05,5,0)" xlink:href="#bJ"/><use transform="matrix(0.05,0,0,0.05,15,0)" xlink:href="#dm"/><use transform="matrix(0.05,0,0,0.05,25,0)" xlink:href="#bO"/><use transform="matrix(0.05,0,0,0.05,28.950000000000003,0)" xlink:href="#bL"/><use transform="matrix(0.05,0,0,0.05,38.95,0)" xlink:href="#cu"/></g><g id="bc"><use transform="matrix(0.05,0,0,0.05,0,0)" xlink:href="#di"/><use transform="matrix(0.05,0,0,0.05,10,0)" xlink:href="#bJ"/><use transform="matrix(0.05,0,0,0.05,20,0)" xlink:href="#cJ"/><use transform="matrix(0.05,0,0,0.05,29,0)" xlink:href="#bL"/></g><use transform="matrix(0.05,0,0,0.05,0,0)" xlink:href="#bJ" id="bd"/><g id="be"><use transform="matrix(0.05,0,0,0.05,0,0)" xlink:href="#bK"/><use transform="matrix(0.05,0,0,0.05,14.950000000000001,0)" xlink:href="#cI"/><use transform="matrix(0.05,0,0,0.05,24.950000000000003,0)" xlink:href="#bO"/><use transform="matrix(0.05,0,0,0.05,28.900000000000002,0)" xlink:href="#cv"/><use transform="matrix(0.05,0,0,0.05,33.900000000000006,0)" xlink:href="#ct"/><use transform="matrix(0.05,0,0,0.05,37.85000000000001,0)" xlink:href="#cz"/><use transform="matrix(0.05,0,0,0.05,47.85000000000001,0)" xlink:href="#bO"/><use transform="matrix(0.05,0,0,0.05,51.80000000000001,0)" xlink:href="#bL"/></g><path d="M101-234c-31-9-42 10-38 44h38v23H63V0H32v-167H5v-23h27c-7-52 17-82 69-68v24" id="dn"/><g id="bf"><use transform="matrix(0.05,0,0,0.05,0,0)" xlink:href="#dn"/><use transform="matrix(0.05,0,0,0.05,5,0)" xlink:href="#ct"/><use transform="matrix(0.05,0,0,0.05,8.95,0)" xlink:href="#bL"/><use transform="matrix(0.05,0,0,0.05,18.95,0)" xlink:href="#bO"/><use transform="matrix(0.05,0,0,0.05,22.9,0)" xlink:href="#cD"/></g><g id="bg"><use transform="matrix(0.05,0,0,0.05,0,0)" xlink:href="#cz"/><use transform="matrix(0.05,0,0,0.05,10,0)" xlink:href="#cr"/><use transform="matrix(0.05,0,0,0.05,15.949999999999998,0)" xlink:href="#ct"/><use transform="matrix(0.05,0,0,0.05,19.9,0)" xlink:href="#bK"/><use transform="matrix(0.05,0,0,0.05,34.85,0)" xlink:href="#bJ"/><use transform="matrix(0.05,0,0,0.05,44.85,0)" xlink:href="#cr"/><use transform="matrix(0.05,0,0,0.05,50.800000000000004,0)" xlink:href="#cy"/></g><path d="M143 0L79-87 56-68V0H24v-261h32v163l83-92h37l-77 82L181 0h-38" id="do"/><g id="bh"><use transform="matrix(0.05,0,0,0.05,0,0)" xlink:href="#do"/><use transform="matrix(0.05,0,0,0.05,9,0)" xlink:href="#bL"/><use transform="matrix(0.05,0,0,0.05,19,0)" xlink:href="#cy"/><use transform="matrix(0.05,0,0,0.05,26.649999999999995,0)" xlink:href="#cS"/></g><g id="bi"><use transform="matrix(0.05,0,0,0.05,0,0)" xlink:href="#cm"/><use transform="matrix(0.05,0,0,0.05,10.950000000000001,0)" xlink:href="#ct"/><use transform="matrix(0.05,0,0,0.05,14.9,0)" xlink:href="#bL"/><use transform="matrix(0.05,0,0,0.05,24.900000000000002,0)" xlink:href="#bO"/><use transform="matrix(0.05,0,0,0.05,28.85,0)" xlink:href="#cD"/><use transform="matrix(0.05,0,0,0.05,38.85,0)" xlink:href="#cu"/></g><g id="bj"><use transform="matrix(0.05,0,0,0.05,0,0)" xlink:href="#cH"/><use transform="matrix(0.05,0,0,0.05,9,0)" xlink:href="#cw"/><use transform="matrix(0.05,0,0,0.05,19,0)" xlink:href="#bK"/><use transform="matrix(0.05,0,0,0.05,33.95,0)" xlink:href="#cz"/><use transform="matrix(0.05,0,0,0.05,43.95,0)" xlink:href="#cr"/><use transform="matrix(0.05,0,0,0.05,49.900000000000006,0)" xlink:href="#ct"/><use transform="matrix(0.05,0,0,0.05,53.85,0)" xlink:href="#cu"/><use transform="matrix(0.05,0,0,0.05,62.85,0)" xlink:href="#ct"/><use transform="matrix(0.05,0,0,0.05,66.80000000000001,0)" xlink:href="#cs"/><use transform="matrix(0.05,0,0,0.05,76.80000000000001,0)" xlink:href="#bN"/></g><g id="bk"><use transform="matrix(0.05,0,0,0.05,0,0)" xlink:href="#cv"/><use transform="matrix(0.05,0,0,0.05,5,0)" xlink:href="#di"/><use transform="matrix(0.05,0,0,0.05,15,0)" xlink:href="#bL"/></g><g id="bl"><use transform="matrix(0.05,0,0,0.05,0,0)" xlink:href="#cz"/><use transform="matrix(0.05,0,0,0.05,10,0)" xlink:href="#cr"/><use transform="matrix(0.05,0,0,0.05,15.949999999999998,0)" xlink:href="#ct"/><use transform="matrix(0.05,0,0,0.05,19.9,0)" xlink:href="#bK"/><use transform="matrix(0.05,0,0,0.05,34.85,0)" xlink:href="#bJ"/><use transform="matrix(0.05,0,0,0.05,44.85,0)" xlink:href="#cr"/><use transform="matrix(0.05,0,0,0.05,50.800000000000004,0)" xlink:href="#cy"/></g><g id="bm"><use transform="matrix(0.05,0,0,0.05,0,0)" xlink:href="#do"/><use transform="matrix(0.05,0,0,0.05,9,0)" xlink:href="#bL"/><use transform="matrix(0.05,0,0,0.05,19,0)" xlink:href="#cy"/><use transform="matrix(0.05,0,0,0.05,28,0)" xlink:href="#cu"/></g><g id="bn"><use transform="matrix(0.05,0,0,0.05,0,0)" xlink:href="#bJ"/><use transform="matrix(0.05,0,0,0.05,10,0)" xlink:href="#cr"/><use transform="matrix(0.05,0,0,0.05,15.949999999999998,0)" xlink:href="#bL"/></g><path d="M206 0h-36l-40-164L89 0H53L-1-190h32L70-26l43-164h34l41 164 42-164h31" id="dp"/><g id="bo"><use transform="matrix(0.05,0,0,0.05,0,0)" xlink:href="#cu"/><use transform="matrix(0.05,0,0,0.05,9,0)" xlink:href="#di"/><use transform="matrix(0.05,0,0,0.05,19,0)" xlink:href="#cw"/><use transform="matrix(0.05,0,0,0.05,29,0)" xlink:href="#dp"/><use transform="matrix(0.05,0,0,0.05,41.95,0)" xlink:href="#cs"/></g><g id="bp"><use transform="matrix(0.05,0,0,0.05,0,0)" xlink:href="#dm"/><use transform="matrix(0.05,0,0,0.05,10,0)" xlink:href="#cw"/><use transform="matrix(0.05,0,0,0.05,20,0)" xlink:href="#bO"/><use transform="matrix(0.05,0,0,0.05,23.95,0)" xlink:href="#cD"/></g></defs></g></svg>